<svg width="80" height="80" viewBox="0 0 80 80" fill="none" xmlns="http://www.w3.org/2000/svg">
<path d="M70.0782 68.3217C67.6921 68.7038 65.3617 69.3495 63.0062 69.8753C61.9524 70.1105 60.8577 70.1841 59.7959 70.3853C59.1729 70.5041 58.526 70.7235 57.8815 70.8117C58.0784 70.7495 58.2559 70.6952 58.3792 70.6489C59.2046 70.33 60.0627 70.1152 60.9098 69.8642C62.3006 69.4503 63.7673 69.2456 64.9998 68.4247C65.3391 68.1986 65.2531 67.5325 64.7702 67.5822C63.3816 67.727 61.9624 67.9158 60.5842 68.1555C59.0373 68.4247 57.5334 68.8928 55.9887 69.1744C55.7851 69.2105 55.5793 69.2491 55.3734 69.2852C56.3312 69.0139 57.2901 68.7356 58.2263 68.401C58.6945 68.2338 59.5268 68.0189 59.4182 67.3719C59.3867 67.1799 59.1673 67.035 58.9829 67.0395C57.4371 67.0836 55.922 67.5314 54.3963 67.7588C53.6207 67.8741 52.8449 67.9805 52.0704 68.0956C52.2581 67.9985 52.4152 67.8764 52.4988 67.7203C52.6448 67.4489 52.4695 66.9989 52.1076 67.0397C48.8476 67.4128 45.6338 68.0416 42.4282 68.7177C42.8387 68.5244 43.2243 68.2891 43.5646 67.9917C43.8699 67.7272 43.6199 67.2183 43.2457 67.2205C41.7451 67.2295 40.2231 67.5438 38.7295 67.7055C37.0287 67.8897 35.3406 68.178 33.667 68.5344C33.0834 68.6564 32.4984 68.7718 31.9121 68.8803C32.536 68.6899 33.158 68.4931 33.7779 68.2902C34.3387 68.1047 34.1059 67.3155 33.537 67.4172C32.2512 67.6456 30.9351 67.7089 29.6437 67.9158C28.2687 68.1339 26.9332 68.5547 25.5785 68.8644C25.2054 68.9492 24.8334 69.033 24.4602 69.1166C25.3898 68.8125 26.3113 68.4869 27.1934 68.0627C27.5993 67.8683 27.4026 67.1977 26.9649 67.2203C26.0546 67.2666 25.1952 67.5844 24.3132 67.78C23.3431 67.9916 22.3841 68.1881 21.4274 68.4345C21.4546 68.1905 21.3121 67.9303 20.9954 67.9438C19.7991 67.9958 18.5168 68.3847 17.386 68.7602C16.3909 69.0916 15.1821 69.2239 14.3442 69.8853C14.0818 70.0922 14.231 70.5786 14.5432 70.6406C15.1866 70.7695 15.7962 70.5458 16.4124 70.375C17.4843 70.0764 18.6162 69.8808 19.7176 69.7078C19.8726 69.683 20.0263 69.6558 20.1801 69.6264C19.8072 69.7618 19.4317 69.89 19.0538 70.011C18.4013 70.2156 17.7445 70.3681 17.1496 70.7188C16.8851 70.8736 16.824 71.361 17.1496 71.5C18.0599 71.8858 19.0234 71.4005 19.911 71.0895C21.364 70.5808 23.0127 70.3388 24.5167 69.9995C25.3501 69.813 26.1801 69.6139 27.0112 69.417C25.6135 69.8536 24.226 70.3172 22.8646 70.8544C22.419 71.0295 22.4382 71.7624 22.9856 71.7431C23.7318 71.7138 24.4363 71.5464 25.1465 71.318C25.9858 71.0483 26.8379 70.8203 27.6998 70.635C29.4321 70.2585 31.1657 69.8931 32.9138 69.606C34.7526 69.3052 36.5549 68.8733 38.4095 68.647C39.201 68.5497 39.9937 68.4402 40.7841 68.3474C40.731 68.3586 40.6777 68.3711 40.6281 68.3813C39.6432 68.561 38.6843 68.8653 37.6971 69.045C36.8287 69.2035 35.932 69.6331 35.094 69.9136C34.2968 70.1792 33.4396 70.3036 32.7057 70.7186C32.2331 70.9855 32.5723 71.6289 33.054 71.5452C37.4323 70.7866 41.7541 69.7156 46.1179 68.8822C45.2257 69.1208 44.3324 69.3639 43.4593 69.6591C42.9924 69.8152 42.5321 69.9872 42.072 70.1544C41.2545 70.3161 40.4402 70.5128 39.7606 70.8997C39.3049 71.1597 39.6159 71.8439 40.1088 71.7263C40.8924 71.5386 41.6523 71.2739 42.4099 70.9992C42.9946 70.8895 43.5804 70.798 44.1004 70.6624C45.7695 70.2258 47.4532 69.8469 49.1527 69.5564C50.7551 69.2816 52.3382 68.9538 53.9531 68.7286C54.0017 68.7219 54.0513 68.7128 54.101 68.706C51.8034 69.3561 49.552 70.0991 47.2859 70.8545C46.9421 70.9686 46.8009 71.4967 47.1774 71.681C47.8648 72.0169 49.0387 71.4831 49.7216 71.3125C51.4065 70.8919 53.1163 70.6103 54.8248 70.3003C56.4496 70.0052 58.0576 69.6491 59.6702 69.321C58.8606 69.5924 58.0351 69.8106 57.2334 70.1306C56.789 70.307 56.262 70.3999 55.9487 70.7889C55.7226 71.0727 55.8163 71.4097 56.1488 71.5453C56.9991 71.8936 57.8721 71.7545 58.7406 71.5453C60.0749 71.2242 61.4206 71.0094 62.7809 70.8388C63.9726 70.687 65.169 70.3005 66.3371 70.0213C67.6556 69.7056 68.9785 69.4083 70.3176 69.1945C70.8923 69.103 70.6481 68.2311 70.0782 68.3217Z" fill="#B3B3B3"/>
<path d="M15.3743 32.3405C15.3867 32.0736 14.9717 32.0736 14.9581 32.3405C14.9071 33.391 14.6539 34.3578 14.3768 35.3619C14.2106 35.9602 14.0782 36.6419 14.3643 37.2186C14.482 37.4583 14.8415 37.248 14.7217 37.0094C14.3734 36.3038 14.8189 35.276 15.0484 34.5874C15.2817 33.8885 15.337 33.0799 15.3743 32.3405ZM17.8643 35.0385C17.8643 34.7705 17.4493 34.7705 17.4493 35.0385V37.2186C17.4493 37.9243 17.0965 38.4999 17.0343 39.1896C17.0106 39.4564 17.4256 39.4543 17.4493 39.1896C17.5014 38.6083 17.8123 38.1121 17.8643 37.5296C17.9379 36.7143 17.8643 35.8571 17.8643 35.0385ZM19.7325 37.7364C19.7042 39.2008 19.3468 40.6313 19.3175 42.0957C19.3118 42.3636 19.7279 42.3636 19.7325 42.0957C19.7607 40.6313 20.1192 39.2019 20.1474 37.7364C20.1542 37.4685 19.7381 37.4696 19.7325 37.7364ZM22.4315 40.6425C22.4032 42.0346 22.0267 43.37 21.8164 44.7394C21.7756 45.0018 22.1759 45.1138 22.2167 44.8502C22.4315 43.4435 22.8182 42.0732 22.8453 40.6425C22.8521 40.3757 22.4373 40.3757 22.4315 40.6425ZM24.2985 43.1338C24.259 44.4704 23.7173 45.7199 23.4764 47.0225C23.4278 47.2838 23.8281 47.3958 23.8767 47.1333C24.1232 45.7922 24.6728 44.51 24.7146 43.1338C24.7226 42.8657 24.3075 42.8657 24.2985 43.1338ZM27.4409 44.4827C26.9682 45.3149 26.9196 46.2954 26.6674 47.2044C26.4707 47.9157 26.2185 48.6135 25.9664 49.3066C25.8759 49.5586 26.2762 49.6661 26.3667 49.4161C26.5785 48.8359 26.7775 48.2512 26.9637 47.6622C27.2712 46.6897 27.2926 45.5839 27.7993 44.6918C27.9317 44.4589 27.5732 44.2497 27.4409 44.4827ZM30.3267 47.0224C29.7115 48.6304 28.9403 50.0835 28.8657 51.8519C28.8545 52.1199 29.2706 52.1188 29.2807 51.8519C29.3543 50.1308 30.1278 48.6982 30.727 47.1332C30.822 46.8822 30.4217 46.7747 30.3267 47.0224ZM32.4231 50.0869C31.9742 50.7383 31.7954 51.3839 31.6339 52.1494C31.4676 52.9421 31.1973 53.7405 31.1498 54.55C31.1339 54.818 31.5478 54.8169 31.5635 54.55C31.602 53.9078 31.9129 53.3389 31.9617 52.708C32.026 51.8586 32.3009 50.9936 32.7815 50.296C32.9342 50.0744 32.5735 49.8674 32.4231 50.0869ZM34.2629 52.6832C34.1962 54.0378 33.9734 55.4649 33.6467 56.7777C33.5821 57.0389 33.9835 57.1485 34.0481 56.8897C34.3873 55.5236 34.6089 54.0875 34.6779 52.6832C34.6914 52.4139 34.2765 52.4163 34.2629 52.6832ZM37.3839 54.2877C36.9485 55.8268 36.546 57.3747 35.9307 58.8538C35.8279 59.1014 36.2293 59.2077 36.331 58.9635C36.9462 57.4844 37.3487 55.9363 37.7842 54.3972C37.8576 54.1396 37.4562 54.031 37.3839 54.2877ZM39.244 56.8341C39.2079 57.516 38.9139 58.0938 38.7679 58.7497C38.6096 59.47 38.5814 60.2096 38.422 60.9299C38.3643 61.1911 38.7646 61.3019 38.8223 61.0396C38.9817 60.3204 39.0428 59.5875 39.1682 58.8605C39.2892 58.1616 39.6206 57.5546 39.6601 56.8341C39.6737 56.5661 39.2598 56.5674 39.244 56.8341ZM41.1415 59.0121C40.8114 59.7596 40.6959 60.5589 40.4957 61.3471C40.316 62.0572 40.1135 62.7358 40.0751 63.4764C40.0615 63.7433 40.4765 63.7421 40.4901 63.4764C40.5262 62.7946 40.7017 62.1082 40.896 61.4568C41.1201 60.7116 41.181 59.9416 41.5 59.2211C41.6073 58.9793 41.25 58.7679 41.1415 59.0121ZM42.9812 60.9854C42.9564 62.3139 42.5956 63.5749 42.3659 64.8741C42.3196 65.1353 42.7199 65.2474 42.7651 64.9838C43.0028 63.6483 43.3701 62.3513 43.3962 60.9854C43.4007 60.7185 42.9857 60.7185 42.9812 60.9854ZM45.2642 63.0614C45.2506 64.1628 45.0381 65.2439 44.8571 66.3271C44.812 66.5883 45.2121 66.7002 45.2564 66.4368C45.4453 65.3185 45.6645 64.1989 45.6793 63.0613C45.6837 62.7922 45.2689 62.7922 45.2642 63.0614ZM47.7554 63.6833C47.7237 64.0463 47.5326 64.311 47.3685 64.6163C47.3018 64.7418 47.3403 64.9272 47.3381 65.0629C47.3356 65.6283 47.2692 66.1916 47.1401 66.7421C47.079 67.0021 47.4795 67.113 47.5404 66.8529C47.6631 66.322 47.7339 65.7804 47.7518 65.2358C47.7689 64.6602 48.1228 64.2497 48.1703 63.6832C48.1931 63.4177 47.7779 63.4188 47.7554 63.6833ZM49.8123 63.3747C49.8507 62.3716 49.8303 61.3653 49.8303 60.3624C49.8303 60.0943 49.4165 60.0943 49.4165 60.3624C49.4165 61.1449 49.4221 61.9263 49.4132 62.7075C49.41 62.953 49.4992 64.4364 49.3103 64.5429C49.0774 64.6741 49.2876 65.0313 49.5207 64.9002C49.8982 64.6897 49.7987 63.7161 49.8123 63.3747ZM52.5284 59.5322C52.4912 60.1372 52.2028 60.6349 52.0456 61.2069C51.8387 61.9579 51.4993 62.668 51.2914 63.4211C51.2201 63.68 51.6203 63.7886 51.6917 63.5319C52.0535 62.2191 52.8576 60.9016 52.9446 59.5322C52.9614 59.2643 52.5465 59.2666 52.5284 59.5322ZM54.5909 60.5997C55.3485 59.5063 55.2378 58.138 55.2287 56.8341C55.2264 56.5661 54.8103 56.5661 54.8126 56.8341C54.8217 58.0408 54.9664 59.3694 54.2381 60.3882C54.064 60.4311 53.9949 60.5408 53.9825 60.7771C53.9734 60.9558 54.2165 61.0552 54.3365 60.9241C54.385 60.8701 54.4314 60.8143 54.4756 60.7568C54.5421 60.7274 54.5796 60.6664 54.5909 60.5997ZM57.7185 55.3811C57.714 55.1119 57.3001 55.1119 57.3035 55.3811C57.324 56.695 57.7345 58.2736 56.9168 59.428C56.762 59.6463 57.1215 59.8522 57.2753 59.6361C58.1473 58.4072 57.7412 56.7777 57.7185 55.3811ZM60.2007 56.5832C60.1714 55.2805 60.0142 53.9858 60.0017 52.6832C60.0006 52.4139 59.5845 52.4139 59.5868 52.6832C59.6003 54.0683 59.7812 55.4469 59.7948 56.8341C59.7971 57.101 60.2098 57.1022 60.2098 56.8341V56.6261C60.2098 56.6093 60.2042 56.5968 60.2007 56.5832ZM62.4928 49.5689C62.4904 49.3008 62.0767 49.3008 62.0778 49.5689C62.0903 50.936 62.2734 52.3325 61.8778 53.6646C61.8009 53.9224 62.2021 54.031 62.2781 53.7753C62.6851 52.406 62.5051 50.9744 62.4928 49.5689ZM64.3607 47.286C64.3507 47.0179 63.9356 47.0179 63.9459 47.286C63.9685 47.848 64.1314 48.385 64.1539 48.946C64.1731 49.4288 64.1539 49.9149 64.1539 50.3989C64.1539 50.6671 64.5689 50.6671 64.5689 50.3989V48.946C64.5689 48.385 64.3846 47.8457 64.3607 47.286ZM66.852 44.5868C66.8474 44.3199 66.4324 44.3197 66.437 44.5866C66.4495 45.3533 66.6326 46.103 66.6451 46.8697C66.6495 47.1377 67.0635 47.1388 67.0601 46.8697C67.0474 46.1032 66.8645 45.3535 66.852 44.5868ZM45.4293 19.7808C44.9465 20.5724 44.6695 21.4318 44.3935 22.3127C44.1187 23.188 43.8101 24.2236 43.7389 25.1443C43.7196 25.4122 44.1334 25.41 44.155 25.1443C44.2126 24.3844 44.6276 23.7149 44.6854 22.9652C44.7601 21.978 45.2823 20.8178 45.7868 19.99C45.927 19.7616 45.5673 19.5536 45.4293 19.7808ZM47.9521 22.23C47.2725 22.9447 46.8339 23.8889 46.515 24.8116C46.4268 25.066 46.8293 25.1735 46.9153 24.9224C47.2092 24.0708 47.6185 23.1832 48.2449 22.5239C48.4304 22.3308 48.1364 22.0357 47.9521 22.23ZM50.9645 33.3424C50.4489 34.3579 49.8654 35.3246 49.8281 36.4927C49.8214 36.7596 50.2351 36.7596 50.2442 36.4927C50.2782 35.4049 50.8435 34.4969 51.3218 33.5527C51.4439 33.3139 51.0854 33.1036 50.9645 33.3424ZM54.0085 34.1733C53.4815 34.9649 52.9128 35.7869 52.8731 36.7685C52.8607 37.0353 53.2768 37.0353 53.2881 36.7685C53.3242 35.8718 53.8862 35.1039 54.3668 34.3825C54.5162 34.1586 54.1556 33.9518 54.0085 34.1733ZM56.1945 35.9385V36.4925C56.1945 36.7594 56.6093 36.7594 56.6093 36.4925V35.9385C56.6093 35.6705 56.1945 35.6705 56.1945 35.9385ZM29.0715 35.9385C29.0184 37.1824 28.2845 38.2747 28.2404 39.5355C28.2314 39.8035 28.6464 39.8035 28.6554 39.5355C28.6984 38.2758 29.4334 37.1891 29.4865 35.9385C29.4967 35.6705 29.0828 35.6718 29.0715 35.9385ZM31.8464 37.5443C31.5907 38.295 31.3025 39.0086 31.2854 39.8125C31.2787 40.0805 31.6937 40.0805 31.6993 39.8125C31.7175 39.0482 32.0035 38.3674 32.2467 37.655C32.3326 37.3994 31.9323 37.2921 31.8464 37.5443ZM24.0882 21.5471C24.0012 22.8316 23.0265 23.8177 22.9812 25.1441C22.9732 25.4121 23.3882 25.4121 23.3962 25.1441C23.4403 23.8268 24.4162 22.8418 24.5043 21.5471C24.5223 21.2793 24.1074 21.2814 24.0882 21.5471ZM27.1615 21.996C26.6153 22.7955 25.8046 23.57 25.7492 24.5911C25.7357 24.8591 26.1495 24.8569 26.1642 24.5911C26.2139 23.6797 27.0315 22.9199 27.52 22.2052C27.6717 21.9836 27.312 21.7755 27.1615 21.996ZM29.7556 22.8758C29.707 22.6124 29.3067 22.7243 29.3553 22.9855C29.474 23.6368 28.9178 24.1671 28.5581 24.6397C28.2482 25.0468 27.9939 25.4528 27.9632 25.9752C27.9473 26.2432 28.3625 26.241 28.3782 25.9752C28.4496 24.7721 29.9954 24.183 29.7556 22.8758Z" fill="#1F8AFF"/>
<path d="M45.7562 68.2383C43.7896 68.2383 41.8176 67.2941 39.5538 65.2689C39.4137 65.1457 39.3254 65.0066 39.287 64.8529L39.2542 64.7227L39.166 64.6232C36.8762 62.0563 34.3343 59.6975 31.8782 57.4179C29.8021 55.4899 27.6593 53.501 25.6929 51.41C24.967 50.6388 24.2443 49.8633 23.5207 49.0897L23.3478 48.9054C20.0165 45.3433 16.5788 41.6661 12.9988 38.2285C12.8563 38.0894 12.7681 37.938 12.7365 37.775L12.7048 37.6077L12.5838 37.4889C10.4728 35.4321 9.30463 32.8529 9.46182 30.5889C9.57932 28.8916 10.4207 27.4589 11.9596 26.3282L12.041 26.2694L12.0954 26.1835C12.1507 26.0963 12.2006 26.033 12.2638 25.9743C13.7904 24.5563 15.3079 23.0714 16.7768 21.6343L16.8163 21.5969C21.2749 17.2333 25.8853 12.7214 31.3356 9.48738L31.3548 9.47504L31.3954 9.44566C31.4938 9.36082 31.5696 9.31223 31.6612 9.2727C31.789 9.2027 31.8693 9.17098 31.9721 9.14504C33.3743 8.60566 34.7279 8.3252 35.9129 8.3252C37.3851 8.3252 38.6154 8.7391 39.572 9.55551L39.6659 9.63457L39.7857 9.66738C39.9995 9.72285 40.1657 9.85395 40.2959 10.0688C42.9248 14.4291 46.7457 17.9536 50.4423 21.363C51.8004 22.616 53.1981 23.9061 54.4996 25.2032C58.6485 29.3418 63.5006 34.1171 68.5835 38.4254L68.7124 38.535L68.8809 38.5497C69.0584 38.5666 69.2132 38.6616 69.357 38.8382C71.8943 41.9624 70.3124 45.6272 68.1854 47.8164L68.0656 47.9386L68.0395 48.1082C68.0203 48.2338 67.9648 48.3524 67.8721 48.4724C67.1529 49.411 66.4507 50.3708 65.7712 51.2993C63.7596 54.0516 61.8599 56.6489 59.4162 58.941C59.0409 59.2904 58.256 59.8547 57.4273 60.4529C56.3892 61.1982 55.2268 62.0349 54.3843 62.788L54.2792 62.8819L54.2328 63.0154C54.192 63.1341 54.122 63.2507 54.0235 63.3591C53.7778 63.6287 53.5278 63.8944 53.2738 64.1563L53.1743 64.2604L53.1392 64.3961C53.1256 64.438 53.1031 64.5036 53.0951 64.5861C53.0351 65.2985 52.4178 65.4963 52.0628 65.5019L51.8671 65.5043L51.7187 65.6307C49.9887 67.1119 48.3751 67.9193 46.6392 68.1738C46.3468 68.2166 46.0517 68.2381 45.7562 68.2383ZM35.7431 10.1299C34.5615 10.1299 33.442 10.4997 32.7115 10.8083C27.1323 14.0277 22.5537 18.5304 18.1256 22.8839C16.6487 24.3358 15.1256 25.833 13.5957 27.2544C13.5277 27.3161 13.4516 27.3681 13.3695 27.4093L13.2282 27.4827L13.1501 27.6196C13.0784 27.7408 12.9811 27.845 12.8651 27.9249C11.7546 28.7244 11.1938 29.7794 11.1995 31.0605C11.2062 33.2802 13.0234 35.7318 14.8157 37.005C15.0521 37.1735 15.1945 37.4064 15.2262 37.68L15.2465 37.8688L15.3821 38.0022C17.5159 40.1146 19.5898 42.3343 21.5957 44.4782C23.7249 46.7579 25.9288 49.1144 28.2029 51.3432C29.622 52.7339 31.0818 54.0922 32.4931 55.4061C35.2476 57.9683 38.0882 60.6121 40.6132 63.473C40.7055 63.5772 40.7762 63.6987 40.8212 63.8304L40.8676 63.9729L40.9785 64.07C42.5807 65.4791 44.1435 66.1643 45.7548 66.1643C47.7901 66.1643 49.8142 65.0583 52.1223 62.6882C52.9929 61.5993 54.2617 60.6732 55.3823 59.8544C55.9079 59.47 56.3818 59.1239 56.7901 58.7858C59.8228 56.2777 62.1149 53.1682 64.3334 50.1614C64.7598 49.5836 65.1871 49.0036 65.6203 48.4268L65.7367 48.2707L65.7287 48.0786C65.714 47.736 65.8531 47.4441 66.1335 47.235C67.8196 45.9721 69.7284 43.0366 68.4709 40.7444L68.3906 40.5975L68.2437 40.5229C68.1763 40.487 68.1127 40.4445 68.0537 40.3961C63.8448 36.8918 59.8882 33.0086 56.0629 29.2535C54.3973 27.6183 52.6999 25.9527 51.0015 24.3357C50.2698 23.638 49.5268 22.9458 48.7829 22.2539C45.3454 19.0516 41.7946 15.7418 39.2131 11.7761L39.1554 11.6857L39.0649 11.6246C38.992 11.5763 38.9259 11.5185 38.8682 11.4527C38.1098 10.5754 37.0582 10.1299 35.7431 10.1299Z" fill="#0077BF"/>
<path d="M46.5295 61.6116C46.257 61.6116 46.0095 61.5177 45.8489 61.3539C45.7029 61.2047 45.634 61.0068 45.6397 60.7489C45.7336 56.7494 45.357 52.7352 44.9928 48.8532C44.7894 46.6743 44.5812 44.4579 44.4568 42.2764L44.4286 41.7914L41.8051 41.6682C40.1497 41.5902 38.4953 41.5133 36.842 41.4307C36.2879 41.4035 35.9228 41.0383 35.89 40.4764C35.7701 38.3675 35.6242 36.2824 35.4422 33.7991L35.3912 33.0913L34.7229 33.331C34.6207 33.3681 34.5128 33.3872 34.404 33.3875C32 33.3558 29.5767 33.1839 27.2326 33.0166C24.5958 32.8288 21.8942 32.6366 19.2187 32.6366C18.7426 32.6366 18.2654 32.6433 17.7872 32.6547L17.7465 32.6571C17.1529 32.6571 16.9334 32.19 16.929 31.7897C16.9245 31.4358 17.1054 30.8296 17.8178 30.8104C18.2893 30.7969 18.7598 30.7911 19.2301 30.7911C21.8648 30.7911 24.5448 30.9822 27.1365 31.1677C29.5056 31.3361 31.9479 31.5104 34.3701 31.5421C34.4425 31.5432 34.5183 31.5522 34.5873 31.5669L35.2929 31.7185L35.242 31.0004C34.7909 24.771 34.4109 18.6693 34.6711 12.5032C34.7004 11.7954 35.3043 11.6064 35.6572 11.6064C35.9286 11.6064 36.1728 11.6991 36.3265 11.8597C36.4667 12.0066 36.5301 12.2022 36.5198 12.4579C36.227 19.3239 36.7336 26.2658 37.222 32.9769C37.369 34.9977 37.5206 37.0794 37.6495 39.1443L37.6789 39.626L38.1606 39.6497C39.314 39.7063 40.4651 39.7605 41.6173 39.8125C49.3915 40.1777 57.4212 40.5544 65.2631 41.5313C65.9087 41.6103 66.214 42.1849 66.1812 42.7096C66.1678 42.9152 66.0797 43.3936 65.5345 43.3936C65.4883 43.3936 65.4422 43.391 65.3964 43.3857C59.0301 42.5896 52.7351 42.2074 46.8787 41.9111L46.2772 41.8818L46.3133 42.4835C46.44 44.6375 46.6445 46.8164 46.8414 48.9255C47.2043 52.7961 47.5787 56.7877 47.4859 60.7241C47.4704 61.4239 46.8769 61.6116 46.5295 61.6116Z" fill="#0077BF"/>
</svg>
