<svg width="80" height="80" viewBox="0 0 80 80" fill="none" xmlns="http://www.w3.org/2000/svg">
<path d="M70.8581 69.6885C68.3788 70.0858 65.9549 70.7572 63.5074 71.3026C62.4118 71.5482 61.2727 71.6257 60.169 71.8338C59.5212 71.9574 58.849 72.1854 58.1801 72.2769C58.3848 72.2122 58.5691 72.1561 58.6974 72.1066C59.5543 71.7761 60.4477 71.554 61.3259 71.2918C62.7741 70.8618 64.2976 70.6488 65.579 69.7968C65.9316 69.5615 65.8434 68.8682 65.3413 68.9197C63.8979 69.0702 62.4213 69.2655 60.9885 69.5157C59.3804 69.7955 57.817 70.2822 56.2124 70.5736C55.9996 70.6124 55.7868 70.6499 55.5729 70.6899C56.5685 70.4079 57.5641 70.1186 58.5387 69.7707C59.0252 69.5968 59.8895 69.3733 59.7777 68.701C59.7448 68.5011 59.5156 68.3507 59.324 68.3552C57.7171 68.401 56.142 68.8666 54.5573 69.1029C53.7496 69.2229 52.9421 69.3333 52.1381 69.4532C52.3332 69.3522 52.4977 69.2261 52.5846 69.0629C52.7363 68.7808 52.5541 68.313 52.1779 68.3552C48.7877 68.743 45.4481 69.3968 42.1143 70.0996C42.5409 69.8988 42.9431 69.6543 43.2957 69.3461C43.6131 69.0699 43.3545 68.5411 42.9643 68.5435C41.4045 68.5538 39.8221 68.8794 38.2704 69.0488C36.5024 69.2393 34.7474 69.539 33.0065 69.9091C32.401 70.0372 31.791 70.1551 31.1821 70.269C31.8313 70.0717 32.4783 69.8671 33.1229 69.6552C33.7048 69.4627 33.4638 68.6432 32.8724 68.7479C31.5359 68.9865 30.1676 69.0521 28.8251 69.2652C27.3957 69.4932 26.0062 69.9305 24.5979 70.2524C24.211 70.3418 23.8232 70.4276 23.4365 70.5146C24.4015 70.1985 25.3607 69.8601 26.2765 69.4202C26.6996 69.2169 26.4951 68.5196 26.0402 68.5435C25.094 68.5926 24.2005 68.9219 23.2813 69.124C22.2751 69.3452 21.2782 69.5497 20.2837 69.806C20.3107 69.5518 20.1626 69.2818 19.8335 69.2957C18.591 69.3497 17.2579 69.7541 16.0824 70.1455C15.0479 70.4885 13.7913 70.6261 12.9202 71.3141C12.6476 71.529 12.8027 72.0346 13.1271 72.0993C13.7948 72.2344 14.4296 72.0004 15.0691 71.8227C16.1848 71.5127 17.3613 71.3079 18.5063 71.1293C18.6662 71.1033 18.8273 71.0752 18.9871 71.0444C18.598 71.1844 18.209 71.321 17.8151 71.443C17.1357 71.6557 16.4538 71.8157 15.8355 72.1813C15.5616 72.3424 15.4982 72.849 15.8355 72.9924C16.7829 73.3933 17.7846 72.8902 18.7062 72.5658C20.2166 72.0357 21.9305 71.7852 23.4952 71.4327C24.3604 71.2386 25.2245 71.0318 26.0885 70.8285C24.6355 71.281 23.1932 71.7629 21.7779 72.3215C21.3148 72.5049 21.3348 73.2666 21.9026 73.2452C22.6796 73.2147 23.412 73.0419 24.149 72.8046C25.0341 72.519 25.8935 72.291 26.8045 72.0932C28.6054 71.7032 30.4074 71.3222 32.2248 71.0235C34.1362 70.711 36.0099 70.2618 37.9377 70.0268C38.7605 69.9246 39.5846 69.8129 40.4063 69.7152C40.3521 69.7268 40.2959 69.7411 40.2441 69.7504C39.219 69.9374 38.2234 70.2536 37.1973 70.4407C36.2945 70.6052 35.3623 71.0529 34.4888 71.3433C33.6624 71.6196 32.7713 71.7502 32.0084 72.1813C31.517 72.4579 31.8696 73.1265 32.3693 73.0394C36.9209 72.2508 41.4149 71.1376 45.9512 70.2711C45.0226 70.5193 44.0951 70.7719 43.1865 71.0774C42.7021 71.241 42.2237 71.4194 41.7441 71.5947C40.8943 71.7616 40.049 71.964 39.3426 72.3696C38.8688 72.6388 39.1921 73.3497 39.7035 73.2277C40.5193 73.0324 41.3093 72.7574 42.0968 72.4718C42.7046 72.3577 43.3123 72.2624 43.8554 72.1215C45.5895 71.6677 47.3385 71.274 49.1065 70.9719C50.7721 70.6872 52.4179 70.3441 54.0941 70.1113C54.1471 70.1043 54.1976 70.0949 54.2493 70.0879C51.8607 70.7638 49.5191 71.5363 47.1632 72.3215C46.8084 72.4402 46.6612 72.9901 47.0515 73.1805C47.7674 73.5276 48.9877 72.976 49.6977 72.7988C51.4493 72.3602 53.2266 72.0688 55.0016 71.7454C56.692 71.4386 58.3637 71.0685 60.0399 70.7272C59.1982 71.0096 58.3401 71.2363 57.5066 71.569C57.0446 71.7547 56.4956 71.8488 56.1712 72.2557C55.9349 72.5483 56.0337 72.8986 56.3781 73.0397C57.262 73.4019 58.1709 73.2561 59.0735 73.0397C60.4595 72.7071 61.8571 72.4836 63.2726 72.3052C64.5127 72.1477 65.7563 71.7455 66.9707 71.4554C68.3413 71.1272 69.7166 70.8182 71.1085 70.596C71.7056 70.4996 71.4516 69.5944 70.8581 69.6885Z" fill="#B3B3B3"/>
<path d="M23.9004 12.0312C23.0998 12.2075 22.5215 13.1539 22.0514 13.7545C21.0734 15.01 20.0919 16.2608 19.1361 17.5314C17.0919 20.2505 15.1098 23.0987 13.6298 26.1575C13.5089 26.4067 13.8814 26.6253 14.0014 26.375C15.2569 23.7817 16.885 21.3848 18.5612 19.0384C19.4759 17.7583 20.4409 16.5123 21.4095 15.272C21.9925 14.5256 22.98 12.6753 24.0156 12.4484C24.2872 12.3886 24.172 11.9725 23.9004 12.0312ZM26.6547 11.4059C25.1572 12.5356 24.1908 14.072 23.1234 15.5837C22.4769 16.4994 21.7422 17.3623 21.0439 18.238C20.3844 19.062 19.9976 20.1106 19.4581 21.0205C18.3637 22.8672 17.0201 24.5905 15.7576 26.3256C14.555 27.9784 13.2326 29.8053 12.7447 31.82C12.6789 32.0903 13.095 32.2044 13.1609 31.934C13.6394 29.9626 14.9606 28.1711 16.1303 26.5442C17.3164 24.8961 18.5025 23.2528 19.6287 21.5647C20.1319 20.8076 20.5373 19.9847 20.9465 19.1759C21.4567 18.165 22.3595 17.2798 23.0508 16.3875C24.2815 14.7983 25.2395 13.009 26.8712 11.7795C27.0909 11.614 26.877 11.2389 26.6547 11.4059ZM30.5387 10.1115C28.8742 11.3811 27.7715 13.39 26.5467 15.0559C24.72 17.5397 22.8131 19.9637 20.9523 22.4228C19.1831 24.7609 17.3 26.9603 15.4284 29.215C13.9156 31.0359 12.6001 32.9284 12.097 35.2712C12.0394 35.5439 12.4544 35.658 12.5131 35.3864C13.055 32.8637 14.5737 30.89 16.2101 28.9505C17.7829 27.085 19.3606 25.2651 20.8217 23.3092C22.5015 21.0615 24.2319 18.8528 25.92 16.6134C26.6734 15.6142 27.4528 14.6339 28.1675 13.6076C28.9456 12.4909 29.6581 11.3225 30.7559 10.4842C30.9748 10.3173 30.7597 9.94358 30.5387 10.1115ZM34.3779 9.28295C32.0622 11.252 30.2531 13.6817 28.5203 16.1598C27.52 17.5915 26.5465 19.028 25.4392 20.3822C24.3872 21.6706 23.2045 22.8437 22.1195 24.1039C21.1039 25.2853 20.1317 26.4997 19.2419 27.7773C18.2037 29.269 16.8954 30.5973 15.7528 32.0103C14.7559 33.2436 13.8226 34.5236 12.9833 35.8684C12.1886 37.138 11.1083 38.2183 10.3925 39.5361C10.2595 39.7805 10.6323 39.9992 10.7651 39.7547C11.4317 38.5275 12.459 37.5623 13.1937 36.3809C14.1392 34.8622 15.1776 33.4033 16.3029 32.0126C17.3022 30.7772 18.3448 29.5792 19.3617 28.3603C20.4279 27.0861 21.3412 25.6789 22.4239 24.4094C24.427 22.063 26.5136 19.8836 28.244 17.3115C30.1154 14.529 32.1162 11.7701 34.6836 9.58717C34.8964 9.40748 34.5895 9.10295 34.3779 9.28295ZM22.0784 28.0561C21.259 28.8765 20.3104 29.6572 19.6428 30.6058C18.6612 32 17.8361 33.5634 16.644 34.7942C15.7636 35.704 15.0348 36.7656 14.2812 37.7778C13.4808 38.8545 12.5473 39.8644 11.9044 41.0467C11.7704 41.2914 12.1429 41.5087 12.2758 41.2644C12.86 40.1923 13.6934 39.2519 14.4351 38.2844C15.3344 37.1112 16.1737 35.8992 17.2058 34.8342C18.1298 33.8797 18.8104 32.6195 19.5428 31.5181C20.3375 30.3226 21.3742 29.3703 22.384 28.3606C22.5815 28.164 22.2759 27.8584 22.0784 28.0561ZM20.7501 33.0625C19.3548 35.122 17.8148 37.2251 16.2231 39.14C14.9336 40.6928 13.5053 42.4512 12.7447 44.3345C12.6401 44.5933 13.0586 44.7037 13.1609 44.4498C13.9744 42.435 15.6119 40.8705 16.8073 39.1058C18.165 37.105 19.765 35.2817 21.1226 33.2798C21.2803 33.0497 20.9053 32.8333 20.7501 33.0625ZM19.9214 37.5508C19.3925 38.0786 18.8187 38.5794 18.3769 39.1836C17.6739 40.1464 17.1684 41.2606 16.4254 42.1905C15.7342 43.0534 15.0442 43.9162 14.3529 44.7801C13.9392 45.2986 13.677 45.6655 13.5995 46.334C13.569 46.6106 13.9992 46.6081 14.0309 46.334C14.1414 45.3889 15.1253 44.5014 15.6944 43.7892C16.1245 43.253 16.67 42.7172 17.0239 42.1269C17.9725 40.5481 18.92 39.1623 20.2261 37.8551C20.4233 37.6589 20.1176 37.3544 19.9214 37.5508ZM19.865 41.53C19.5758 42.2423 18.9845 42.6583 18.6378 43.3119C18.21 44.1194 17.6269 44.8506 17.0814 45.5784C16.0986 46.8925 15.4379 48.4348 14.7092 49.8936C14.5847 50.1417 14.9561 50.3601 15.0806 50.1123C15.8776 48.5194 16.624 46.9056 17.6973 45.4725C18.2615 44.7203 18.707 43.6951 19.3619 43.0333C19.7709 42.6219 20.0637 42.18 20.2823 41.645C20.3869 41.3865 19.9695 41.2758 19.865 41.53ZM21.2169 44.6709C20.1848 45.9417 19.3312 47.3358 18.4061 48.6831C17.6126 49.8386 17.1012 50.9295 16.8439 52.3201C16.7945 52.5914 17.2106 52.708 17.2611 52.434C17.5069 51.1011 18.0029 50.003 18.7787 48.9005C19.7003 47.5947 20.5114 46.2205 21.52 44.9765C21.694 44.7623 21.3908 44.4545 21.2169 44.6709ZM22.9108 48.0115C22.3076 49.38 20.8665 50.3194 20.0612 51.5819C19.2325 52.8783 18.6987 54.1869 18.1415 55.6162C18.0404 55.8759 18.4576 55.9864 18.5576 55.7301C18.7762 55.1708 18.9773 54.604 19.1984 54.0456C19.5215 53.2253 20.0178 52.5622 20.4339 51.7992C21.1651 50.4604 22.6626 49.6364 23.2834 48.2305C23.3951 47.9775 23.0223 47.7576 22.9108 48.0115ZM24.8503 49.8936C23.3045 52.5233 21.4659 54.8661 20.2962 57.7144C20.1917 57.9719 20.6089 58.0823 20.7136 57.8284C21.8667 55.0178 23.697 52.7067 25.2228 50.1123C25.3651 49.8714 24.9914 49.655 24.8503 49.8936ZM26.7936 52.9161C26.1576 53.8987 25.2936 54.7017 24.6059 55.6469C23.8923 56.6283 23.2483 57.6605 22.6933 58.742C22.5651 58.9889 22.9378 59.2075 23.0659 58.9584C23.6244 57.8686 24.3156 56.8906 24.9786 55.8642C25.6109 54.884 26.529 54.1186 27.1662 53.1323C27.3176 52.8984 26.9428 52.682 26.7936 52.9161ZM29.1445 54.2608C29.0223 54.9108 28.4392 55.3011 28.0878 55.829C27.6728 56.4498 27.2673 57.0784 26.8381 57.6897C26.2479 58.5267 25.5545 59.279 25.1994 60.2572C25.164 60.3548 25.2264 60.4442 25.2981 60.5005C25.3192 60.5148 25.3392 60.5312 25.3592 60.5475C25.5801 60.7169 25.7942 60.3419 25.5767 60.1739C25.7448 60.3042 26.1915 59.2709 26.2279 59.2111C26.5689 58.669 27.012 58.1894 27.38 57.6642C27.8795 56.9578 28.2862 56.1264 28.8976 55.5069C29.2233 55.178 29.4759 54.8345 29.5606 54.3762C29.6112 54.1033 29.1951 53.987 29.1445 54.2608ZM30.9701 55.8583C29.9203 56.5059 28.9894 57.2584 28.2583 58.26C27.5376 59.2461 26.6572 59.9301 26.3398 61.1659C26.2704 61.4362 26.6865 61.5501 26.7548 61.2809C27.0476 60.1442 27.8728 59.6565 28.4594 58.7431C29.1506 57.6698 30.1109 56.8962 31.1878 56.2309C31.4239 56.085 31.2076 55.7125 30.9701 55.8583ZM33.5162 56.54C31.6108 58.4175 29.4359 60.0773 28.4979 62.6773C28.4203 62.8867 28.7129 63.0325 28.8576 62.8867L29.0739 62.6715C29.1679 62.5775 29.1456 62.46 29.0764 62.3822C30.0614 60.0958 32.0822 58.5595 33.8208 56.8445C34.0194 56.6494 33.715 56.3439 33.5162 56.54ZM36.1059 57.1867C34.2956 59.039 32.8979 61.2294 31.3239 63.2734C31.1547 63.4931 31.5297 63.7073 31.6965 63.4911C33.2483 61.4762 34.627 59.3178 36.4103 57.4922C36.6054 57.2936 36.2998 56.9881 36.1059 57.1867ZM39.0436 57.4031C38.5804 57.8719 38.2314 58.4303 37.767 58.8948C37.292 59.3709 36.7972 59.8211 36.3939 60.3594C35.4429 61.6267 34.2122 62.9339 33.5939 64.4033C33.4858 64.6597 33.9031 64.7701 34.01 64.5183C34.559 63.2112 35.6803 62.024 36.5233 60.9014C36.99 60.2795 37.5248 59.7469 38.0726 59.199C38.5415 58.7312 38.8814 58.1801 39.3492 57.7073C39.5444 57.5098 39.24 57.2044 39.0436 57.4031ZM40.4989 59.0086C40.4025 59.494 39.7759 60.182 39.4984 60.5909C39.0834 61.1976 38.5639 61.7055 38.1289 62.2933C37.4248 63.2417 36.3303 64.3278 36.1751 65.5387C36.1398 65.815 36.5714 65.8115 36.6065 65.5387C36.6983 64.824 37.2661 64.2256 37.6692 63.6673C38.1617 62.9819 38.6531 62.3225 39.2079 61.684C39.5947 61.2409 39.919 60.7426 40.2448 60.2537C40.5092 59.8586 40.8219 59.593 40.9148 59.1228C40.9679 58.8511 40.5529 58.7348 40.4989 59.0086ZM43.4036 59.5272C41.1172 61.1198 39.5878 63.7495 38.1465 66.0784C37.9997 66.3159 38.3734 66.5322 38.5192 66.2961C39.9147 64.039 41.4098 61.4398 43.6209 59.8998C43.8479 59.7411 43.6317 59.3672 43.4036 59.5272ZM47.3381 57.9955C47.1183 58.0259 47.0512 58.153 46.9831 58.3351C45.804 59.5944 44.7237 61.0131 43.6798 62.3695C42.6972 63.6486 41.5286 65.052 40.9303 66.5614C40.8281 66.8201 41.2454 66.9306 41.3464 66.6755C41.9553 65.1401 43.2144 63.619 44.2487 62.3484C45.3348 61.0155 46.3517 59.5917 47.5484 58.3551C47.7131 58.187 47.5415 57.9661 47.3381 57.9955ZM51.3878 56.7222C49.7409 57.8012 48.5125 59.3106 47.2569 60.8023C46.5939 61.59 45.9626 62.4058 45.3456 63.23C44.7248 64.0622 44.2595 65.0403 43.5753 65.8184C43.3918 66.0275 43.6962 66.3333 43.8809 66.1239C44.3323 65.609 44.6309 65.0003 45.0129 64.4372C45.6606 63.4801 46.3776 62.5737 47.0972 61.6711C48.4231 60.0087 49.8114 58.2714 51.6053 57.0934C51.8368 56.9433 51.6204 56.5684 51.3878 56.7222ZM55.3879 54.2608C54.9214 55.367 53.9515 56.3662 53.1969 57.2853C52.3634 58.3022 51.4395 59.2262 50.5367 60.1808C49.6386 61.128 48.7969 62.132 47.9494 63.1255C47.3969 63.7709 46.6973 64.4337 46.3472 65.2144C46.2812 65.359 46.3554 65.5387 46.5328 65.5387H46.749C46.9772 65.5387 47.0147 65.2506 46.8678 65.1472C47.3394 64.315 48.1926 63.5014 48.7875 62.8067C49.6269 61.8253 50.4778 60.8567 51.3748 59.928C52.2859 58.9837 53.1558 58.0222 53.9823 57.0019C54.6429 56.1861 55.394 55.349 55.8044 54.3758C55.9123 54.1197 55.4939 54.0092 55.3879 54.2608ZM59.855 51.3053C59.0051 51.4594 58.4079 52.5809 58.0154 53.259C57.1795 54.7075 56.124 55.9605 55.1919 57.3372C54.1786 58.8322 53.01 60.2183 51.8815 61.6267C50.9881 62.7422 49.9208 63.8484 49.5622 65.2659C49.4939 65.5362 49.9089 65.6517 49.9783 65.3812C50.3451 63.9328 51.5242 62.7598 52.4375 61.6194C53.265 60.5873 54.0984 59.5612 54.8895 58.4995C55.7264 57.3805 56.5847 56.2637 57.3711 55.1072C57.8248 54.4406 58.1704 53.6176 58.6983 53.01C59.0884 52.5633 59.3036 51.8414 59.969 51.7215C60.2431 51.6722 60.1267 51.2562 59.855 51.3053ZM71.6267 36.2564C70.8275 37.1215 70.2759 38.1806 69.5989 39.1411C68.682 40.4389 67.8098 41.7695 66.8483 43.0369C65.0944 45.3501 63.5603 47.8495 61.8829 50.2215C60.9119 51.5958 60.0033 52.9534 58.8876 54.2219C57.9437 55.2976 57.1595 56.4014 56.4237 57.6298C55.6678 58.8887 55.0636 60.2278 54.3159 61.4925C53.7306 62.4825 52.7501 63.438 52.582 64.6197C52.5445 64.8909 52.9606 65.0087 52.9981 64.7336C53.1722 63.5123 54.2689 62.4192 54.8801 61.3858C55.5644 60.228 56.1215 59.0112 56.7951 57.8484C57.5569 56.5344 58.455 55.3683 59.4553 54.2278C60.4217 53.1289 61.2139 51.9545 62.039 50.7484C63.6272 48.4348 65.214 46.1192 66.8093 43.8126C67.6156 42.6465 68.475 41.5134 69.2814 40.347C70.1406 39.107 70.9095 37.667 71.9322 36.5608C72.1217 36.3575 71.8172 36.0508 71.6267 36.2564ZM72.9234 39.0612C69.6742 42.9817 66.8319 47.2075 63.7872 51.2819C62.1965 53.4075 60.5087 55.4398 58.9769 57.6087C58.5959 58.147 58.2176 58.6842 57.8333 59.2192C57.5534 59.6117 57.0714 60.0712 56.8987 60.5192C56.5836 61.3328 55.8831 61.8781 55.6033 62.6773C55.5115 62.9408 55.9289 63.0523 56.0206 62.7926C56.2404 62.1612 56.8683 61.6205 57.1679 61.0079C57.7217 59.8748 58.6222 58.8559 59.3486 57.8247C60.8037 55.7675 62.3979 53.8281 63.919 51.819C67.0483 47.6858 69.9165 43.3611 73.2279 39.3655C73.4029 39.153 73.1009 38.8473 72.9234 39.0612ZM72.4908 43.8081C71.2962 45.0328 70.3184 46.4083 69.3979 47.8459C68.3411 49.4951 67.1444 51.0539 65.9678 52.6222C64.7206 54.2854 63.3545 55.8336 62.0356 57.4394C61.5278 58.0574 61.0413 58.6926 60.5767 59.3437C60.27 59.7753 59.9937 60.2278 59.7258 60.6837C59.5259 61.0225 59.4506 61.5467 58.9911 61.6631C58.7219 61.7312 58.8359 62.1475 59.1062 62.0794C59.507 61.9792 59.6753 61.7323 59.8739 61.373C60.3453 60.5206 60.8295 59.714 61.4103 58.9267C62.7126 57.1586 64.2373 55.5658 65.5858 53.8306C66.7295 52.3578 67.8156 50.8414 68.9289 49.3448C70.2348 47.5864 71.2494 45.702 72.7964 44.1137C72.9904 43.9137 72.6848 43.6083 72.4908 43.8081ZM69.9011 49.8503C68.5962 51.2797 67.4265 52.8844 66.2558 54.4255C65.6469 55.2281 65.079 56.0594 64.4725 56.8633C63.9012 57.6217 63.2287 58.3562 62.7468 59.1734C62.6047 59.4142 62.9773 59.6306 63.1183 59.3908C63.5345 58.688 64.1528 58.04 64.6289 57.3678C65.1989 56.5637 65.795 55.762 66.3828 54.9661C67.5853 53.3405 68.842 51.65 70.2069 50.1559C70.3937 49.9512 70.0892 49.6447 69.9011 49.8503ZM37.9303 8.24608C36.5079 10.1445 34.9375 11.889 33.4528 13.7358C32.7558 14.6034 32.0797 15.485 31.3392 16.3148C30.8384 16.8767 30.28 17.4551 30.1401 18.2239C30.0919 18.4965 30.5079 18.613 30.5562 18.339C30.7373 17.3387 31.7129 16.5651 32.3359 15.8187C32.9825 15.043 33.5973 14.2365 34.2333 13.4523C34.8934 12.6347 35.592 11.849 36.3269 11.0978C37.0733 10.3395 37.6647 9.31811 38.304 8.46467C38.47 8.24248 38.0961 8.02733 37.9303 8.24608ZM41.785 7.70873C41.6498 8.71623 40.3519 9.80233 39.7337 10.5759C38.9825 11.5164 38.2537 12.478 37.4309 13.3572C36.1942 14.6786 34.6061 15.78 33.6151 17.3092C33.527 17.4456 33.6422 17.6408 33.8009 17.6348C34.117 17.6231 34.2981 17.5726 34.5567 17.3892C34.7753 17.2375 34.5837 16.8908 34.3662 17.0059C35.6228 15.3625 37.4531 14.1165 38.7439 12.5012C39.522 11.529 40.2978 10.5581 41.0748 9.58717C41.5769 8.95936 42.1034 8.54811 42.2164 7.70873C42.254 7.43264 41.8214 7.43733 41.785 7.70873ZM44.6544 8.20373C43.414 9.26639 42.7136 10.6923 41.8131 12.0219C40.6034 13.8062 39.1658 15.4308 37.7492 17.0508C37.567 17.2576 37.855 17.5539 38.0548 17.3564L38.7014 16.7076C38.7531 16.657 38.7684 16.597 38.7625 16.5419C39.7098 15.4475 40.6398 14.3401 41.5109 13.1823C42.6734 11.6353 43.4692 9.78623 44.9598 8.50842C45.1717 8.32717 44.8636 8.02389 44.6544 8.20373ZM47.3958 9.00311H47.1806C46.9889 9.00311 46.9325 9.20655 47.0054 9.33467C46.1744 10.2845 45.5829 11.3683 44.8612 12.4051C43.9819 13.6665 42.8311 14.6892 42.0306 16.0151C41.8872 16.2537 42.2611 16.4712 42.4033 16.2326C43.132 15.0253 44.1206 14.032 44.9976 12.9364C45.9181 11.7833 46.5176 10.4537 47.5484 9.37217C47.6778 9.23702 47.5873 9.00311 47.3958 9.00311ZM48.6981 10.8886C48.3044 12.0311 47.1217 12.8059 46.3647 13.7062C45.5454 14.6808 44.6954 15.614 43.9725 16.6626C43.8148 16.8931 44.1887 17.1083 44.3451 16.8801C45.1798 15.6694 46.1895 14.609 47.1181 13.4712C47.8106 12.6214 48.7392 12.0876 49.1142 11.0026C49.2061 10.7394 48.7887 10.6265 48.6981 10.8886ZM52.0861 10.9522C51.2397 11.0909 50.6426 12.1559 50.1606 12.7765C49.0637 14.1919 47.852 15.5578 46.5964 16.8345C46.4 17.0344 46.6998 17.3317 46.9008 17.1401C46.9948 17.0895 47.0876 17.0378 47.1806 16.9872C47.3675 16.9778 47.425 16.7803 47.3603 16.6569C48.3278 15.6317 49.2365 14.5539 50.1381 13.4712C50.6553 12.8517 51.3489 11.5081 52.2011 11.3694C52.4739 11.3247 52.3576 10.9086 52.0861 10.9522ZM53.7611 11.8373C53.4508 12.0606 53.3133 12.277 53.1451 12.6261C52.8384 13.262 51.9697 13.7781 51.5325 14.3434C50.7061 15.4109 49.4436 16.1984 48.7194 17.3092C48.6136 17.4739 48.7887 17.6725 48.9637 17.6278C49.1872 17.569 49.387 17.469 49.6104 17.4103C49.8561 17.3467 49.782 17 49.5634 16.9917C49.8314 16.7378 50.124 16.505 50.3804 16.2487C50.8929 15.7362 51.3784 15.2084 51.8381 14.6489C52.2319 14.167 52.675 13.739 53.1159 13.2983C53.4426 12.9715 53.6095 12.4753 53.9786 12.2097C54.202 12.0501 53.9879 11.6762 53.7611 11.8373ZM55.8419 12.7789C55.1812 13.998 54.1609 14.9148 53.2864 15.9717C52.6139 16.784 51.7923 17.3859 51.5031 18.4415C51.4301 18.7108 51.8475 18.8236 51.9204 18.5555C52.219 17.4622 53.3039 16.59 54.0376 15.753C54.8217 14.8561 55.6422 14.0533 56.2136 12.9964C56.3461 12.7506 55.9734 12.5344 55.8419 12.7789ZM59.4801 13.1033C58.3833 13.2233 57.7026 14.2764 57.1397 15.1215C56.1581 16.5958 54.945 17.8911 54.1151 19.4675C53.9847 19.7144 54.3573 19.9319 54.4878 19.6861C55.199 18.3342 56.2547 17.2822 57.0775 16.0173C57.6323 15.165 58.34 13.6581 59.4803 13.5347C59.754 13.5053 59.7562 13.0739 59.4801 13.1033ZM61.3656 14.4058C60.0067 14.9253 58.9581 15.9269 58.0236 17.0142C56.9337 18.2837 55.7817 19.1842 55.1729 20.8134C55.0906 21.0333 55.3845 21.1531 55.5326 21.0239C55.6444 20.9698 55.7572 20.9169 55.8687 20.864C56.1239 20.7958 56.0334 20.422 55.7925 20.4455C56.3237 19.3134 57.1595 18.3742 58.1223 17.5712C58.5454 17.2186 58.8875 16.685 59.2848 16.2934C59.9173 15.6656 60.6461 15.1414 61.4795 14.8217C61.737 14.7231 61.6253 14.307 61.3656 14.4058ZM63.4275 15.5401C62.5483 16.4136 61.4633 17.1517 60.5215 17.9747C59.2473 19.089 58.1423 20.3822 56.9551 21.5823C56.7847 21.7528 57.0056 22.0572 57.2148 21.9209C57.4922 21.7398 57.8039 21.6705 58.0789 21.4895C58.2504 21.3767 58.1751 21.1428 58.0306 21.0923C58.8498 20.2365 59.6562 19.3701 60.5214 18.558C61.5489 17.5915 62.7397 16.8323 63.7329 15.8461C63.9306 15.6495 63.625 15.3439 63.4275 15.5401ZM64.235 16.9308C64.1162 17.528 63.3075 17.9323 62.9125 18.3555C62.4459 18.8551 62.099 19.4675 61.6583 19.9919C60.6684 21.172 59.6681 22.3417 58.6806 23.5244C58.5042 23.7348 58.7864 24.0287 58.9862 23.83L59.4176 23.3973C59.4386 23.3775 59.455 23.3534 59.4658 23.3266C59.4766 23.2998 59.4814 23.271 59.48 23.2422C60.4651 22.0714 61.4559 20.904 62.4376 19.7297C62.9512 19.1148 63.3358 18.5389 63.9481 18.004C64.2901 17.7031 64.5606 17.5033 64.6511 17.0448C64.7064 16.7733 64.2903 16.6569 64.235 16.9308ZM65.5858 18.7776C64.4397 19.9226 63.4664 21.1451 62.5104 22.4559C62.0239 23.1236 61.5819 23.8478 61.0047 24.4425C60.7495 24.7047 60.4626 24.9903 60.3509 25.3465C60.3026 25.5028 60.4614 25.6569 60.6165 25.6109C60.9351 25.5169 61.1209 25.3536 61.3584 25.1244C61.4864 25.002 61.4089 24.834 61.2842 24.7787C61.4019 24.667 61.517 24.5553 61.6075 24.4331C62.0401 23.8512 62.4609 23.26 62.884 22.6733C63.7962 21.4048 64.7861 20.187 65.8898 19.082C66.0876 18.8845 65.782 18.5801 65.5858 18.7776ZM66.6648 20.9347C65.9348 21.8622 65.2636 22.8284 64.6311 23.824C63.9445 24.902 63.1311 25.8883 62.5294 27.0215C62.4153 27.2378 62.689 27.453 62.869 27.2814C62.962 27.232 63.0559 27.1803 63.1476 27.1297C63.3992 27.1167 63.4215 26.7653 63.2181 26.7089C63.7189 25.9014 64.3161 25.1644 64.8109 24.3497C65.4677 23.2712 66.1883 22.2329 66.969 21.2405C67.1387 21.024 66.8365 20.7159 66.6648 20.9347ZM67.7087 23.1364C66.2604 25.4792 64.4433 27.5858 63.1783 30.0414C63.0678 30.2565 63.3381 30.4811 63.5169 30.3036L63.7331 30.0873C63.8061 30.0133 63.8095 29.925 63.7754 29.8522C65.0237 27.5705 66.7144 25.5662 68.0825 23.3539C68.2283 23.1164 67.8556 22.9001 67.7087 23.1364ZM69.4697 25.4651C67.3748 27.5705 66.1075 30.2659 64.2903 32.5876C64.1211 32.8039 64.4242 33.1119 64.5959 32.8933C66.4087 30.5751 67.6864 27.869 69.7742 25.7708C69.9715 25.5745 69.6659 25.27 69.4697 25.4651ZM70.2984 27.8833C69.124 29.6359 68.0684 31.4862 66.867 33.2142C65.9101 34.5919 64.6736 35.7581 64.235 37.4297C64.1645 37.6989 64.5794 37.813 64.6511 37.5448C65.1014 35.8356 66.432 34.5955 67.4136 33.1812C68.5551 31.539 69.5542 29.7675 70.6711 28.1006C70.8286 27.869 70.4525 27.6539 70.2984 27.8833ZM70.5159 30.9044C70.1115 31.8165 69.1017 32.5572 68.4822 33.3425C67.8192 34.1853 67.2409 35.0715 66.6401 35.9556C65.4036 37.7753 63.9012 39.3823 62.7468 41.2619C62.6 41.5005 62.9737 41.7181 63.1183 41.4806C64.2728 39.6044 65.7467 37.9692 67.0128 36.1731C67.7675 35.1022 68.4822 34.0301 69.3004 33.0003C69.8212 32.3456 70.5395 31.9083 70.8873 31.1219C70.999 30.8701 70.6276 30.6515 70.5159 30.9044ZM72.3192 32.5536C70.4067 33.6703 69.01 35.3759 67.69 37.117C66.9036 38.1539 66.1606 39.1883 65.4919 40.3064C64.8947 41.3019 64.0247 42.1823 63.5875 43.2556C63.4829 43.5144 63.9001 43.6248 64.0036 43.3709C64.2364 42.7997 64.6031 42.3847 65.0275 41.9555C65.3767 41.6039 65.6117 40.9526 65.8645 40.5236C66.4698 39.4939 67.1504 38.5487 67.8664 37.5965C69.1995 35.8251 70.5937 34.0606 72.5368 32.9251C72.7765 32.7862 72.5589 32.4125 72.3192 32.5536ZM33.8925 27.7198C33.1814 29.6406 31.3534 30.8537 30.8714 32.8981C30.8067 33.1697 31.2229 33.2848 31.2876 33.0133C31.7661 30.9844 33.5975 29.7547 34.3075 27.835C34.405 27.5728 33.9876 27.4611 33.8925 27.7198ZM36.2387 28.0561C35.3395 28.8084 34.9164 29.8651 34.2462 30.7973C33.8089 31.4015 33.4681 32.0751 33.1295 32.7394C32.899 33.1931 32.4489 33.4858 32.2995 33.9772C32.2172 34.244 32.6334 34.3569 32.7145 34.0911C32.8439 33.6739 33.3034 33.3553 33.5033 32.9567C33.7783 32.4037 34.0783 31.8636 34.4025 31.338C35.0254 30.3317 35.6309 29.1256 36.5431 28.3603C36.7572 28.1817 36.4492 27.8784 36.2387 28.0561ZM37.5001 28.5309C36.7878 29.8075 36.0389 31.063 35.49 32.4219C35.1573 33.2483 34.9962 34.1394 34.479 34.8811C34.1969 35.2844 33.7103 35.7862 33.6079 36.313C33.5939 36.34 33.5856 36.3717 33.5856 36.4081V36.5045C33.5856 36.7831 34.0183 36.7831 34.0183 36.5045C34.0183 35.845 34.9351 35.0751 35.2031 34.4956C35.4464 33.9701 35.6051 33.4012 35.792 32.8534C36.2869 31.404 37.1309 30.078 37.8715 28.7486C38.0079 28.505 37.6353 28.2887 37.5001 28.5309ZM38.9225 29.7264C38.3876 29.8075 38.082 30.1261 37.8879 30.6326C37.4648 31.7364 36.7548 32.6698 36.2047 33.7101C35.7662 34.5389 35.4819 35.3959 35.2054 36.2915C34.9245 37.2097 34.3356 38.0408 34.2333 38.9976C34.2039 39.2739 34.6353 39.2715 34.6647 38.9976C34.7364 38.3287 35.1795 37.6587 35.417 37.0298C35.6933 36.2964 35.8778 35.5322 36.1528 34.7975C36.482 33.917 37.0392 33.1036 37.534 32.3089C37.8914 31.7353 38.3098 30.2517 39.0375 30.1436C39.3128 30.1014 39.1953 29.6864 38.9225 29.7264ZM40.0592 30.1508C39.9909 31.13 39.2328 31.9845 38.8154 32.8415C38.35 33.8019 38.0197 34.8236 37.5448 35.7792C36.4692 37.9409 35.477 40.1439 34.479 42.3409C34.3639 42.5926 34.7364 42.8125 34.8504 42.5597C35.9037 40.245 36.9558 37.9305 38.0878 35.6547C38.6073 34.612 38.9553 33.4917 39.4937 32.4537C39.9004 31.665 40.4272 31.0584 40.4919 30.1509C40.5095 29.8722 40.0792 29.8745 40.0592 30.1508ZM42.4254 30.0931C42.3737 29.8192 41.9589 29.9356 42.0093 30.2072C42.1562 30.9948 41.4228 32.0986 41.0983 32.8028C40.7638 33.5297 40.4913 34.2835 40.2837 35.0562C40.2108 35.3255 40.627 35.4395 40.6986 35.1703C41.0008 34.0559 41.4709 33.0073 41.9494 31.9587C42.2315 31.3405 42.5559 30.789 42.4254 30.0931ZM43.2954 31.6601C43.245 32.3137 42.8536 32.7428 42.6559 33.3306C42.4337 33.9923 42.1881 34.6261 41.8142 35.2208C41.6662 35.457 42.0398 35.6733 42.1881 35.4383C42.6112 34.7636 42.7759 34.0206 43.1403 33.3247C43.4248 32.7815 43.6798 32.282 43.7281 31.6601C43.7492 31.3828 43.3178 31.3851 43.2954 31.6601ZM44.8061 32.309C44.8048 32.918 44.6744 33.4328 44.5392 34.0206C44.3523 34.8411 44.2429 35.583 43.7575 36.3C43.6 36.5315 43.975 36.7455 44.1301 36.5175C44.5792 35.8558 44.7579 35.1715 44.9036 34.3945C45.0411 33.6703 45.2362 33.0533 45.2387 32.309C45.2397 32.0305 44.8083 32.0305 44.8061 32.309ZM37.9303 39.5362C37.2861 40.4353 36.8523 41.5536 36.8229 42.6665C36.8147 42.9451 37.2461 42.9431 37.2544 42.6665C37.2814 41.6262 37.7022 40.592 38.304 39.7548C38.4664 39.5267 38.0926 39.3128 37.9303 39.5362ZM39.6348 40.2356C39.3198 41.5062 38.1842 42.3762 38.1161 43.7447C38.1044 44.0242 38.5358 44.022 38.5487 43.7447C38.6122 42.4444 39.7489 41.5734 40.0522 40.3495C40.1192 40.0792 39.7031 39.964 39.6348 40.2356ZM41.1454 41.3136C40.7223 42.3292 40.0969 43.2508 39.8512 44.3345C39.79 44.6061 40.2062 44.7203 40.2673 44.4498C40.5117 43.3695 41.1408 42.442 41.5628 41.4286C41.6686 41.1726 41.2525 41.0609 41.1454 41.3136ZM43.7351 40.4506C43.3353 41.993 42.1658 43.2073 41.7931 44.7673C41.7297 45.0376 42.1445 45.1515 42.2092 44.8812C42.5831 43.319 43.7514 42.1106 44.1523 40.5661C44.2219 40.2956 43.8056 40.1814 43.7351 40.4506ZM47.1806 35.7605C47.0854 36.5762 46.3906 37.6553 46.059 38.403C45.7476 39.1036 45.4584 39.8112 45.1739 40.5223C44.6108 41.9308 43.6904 43.5212 43.5117 45.0398C43.48 45.3151 43.9114 45.3126 43.9431 45.0398C44.0325 44.2806 44.4451 43.5 44.7273 42.7947C45.1104 41.8367 45.4948 40.8775 45.8781 39.9183C46.2308 39.0355 46.6364 38.1762 47.0076 37.3015C47.2462 36.7361 47.5389 36.3847 47.6119 35.7605C47.6437 35.4853 47.2123 35.4876 47.1806 35.7605ZM47.1806 39.8606C47.1359 40.198 46.9572 40.5495 46.8115 40.848C46.5187 41.4439 46.4517 42.1012 46.1861 42.7114C45.7076 43.8115 45.3631 45.14 45.2387 46.3342C45.2094 46.6108 45.6408 46.6095 45.6701 46.3342C45.8078 45.0164 46.379 43.7658 46.7422 42.508C46.9986 41.6098 47.4898 40.7908 47.612 39.8608C47.6484 39.5855 47.2159 39.588 47.1806 39.8606ZM48.9145 40.882C48.4959 42.0658 47.9659 43.1309 47.619 44.3345C47.3381 45.3101 46.6411 46.1753 46.5329 47.1983C46.5047 47.4733 46.9361 47.4708 46.9644 47.1983C47.0665 46.2342 47.7578 45.3761 48.0364 44.4498C48.3914 43.2684 48.9169 42.168 49.3306 40.9961C49.4236 40.734 49.0062 40.6223 48.9145 40.882ZM49.769 43.5295C49.6831 44.3864 49.1895 45.2656 48.9567 46.1061C48.7358 46.9065 48.3644 47.6683 48.0504 48.4348C47.9458 48.6933 48.3644 48.8037 48.4678 48.5498C48.8275 47.6681 49.2131 46.8009 49.467 45.8814C49.6879 45.0797 50.1158 44.365 50.2017 43.5294C50.2287 43.252 49.7973 43.2555 49.769 43.5295Z" fill="#1F8AFF"/>
<path d="M42.8395 59.6075C39.9865 59.6075 35.844 59.2395 32.3068 57.4914C29.6548 56.1797 26.9124 54.7042 25.0574 52.3688C23.8266 50.8169 22.0374 48.4766 20.7185 46.0761C19.5923 44.0259 19.4584 40.9556 19.4537 38.8242C19.4537 38.4963 19.4502 38.1647 19.449 37.8297C19.4279 35.36 19.4091 32.8102 20.1509 30.572C22.1857 24.4498 25.1985 20.6705 29.6349 18.678C31.9495 17.6377 35.1516 16.7689 37.7943 16.4656C37.9624 16.4467 38.1399 16.4256 38.3234 16.4022C39.0604 16.3116 39.8951 16.207 40.7049 16.207C41.3502 16.207 41.8852 16.2728 42.3435 16.4069L42.3659 16.4128L42.3893 16.4162C42.7034 16.4469 43.0182 16.4727 43.3334 16.4986C44.2585 16.5762 45.2154 16.6537 46.1018 16.8842C46.7624 17.0547 47.4205 17.2345 48.0801 17.4131C48.9535 17.6517 49.827 17.8892 50.7063 18.1091C51.7643 18.3747 52.7163 19.0412 53.6357 19.6866C54.0941 20.0062 54.5691 20.3402 55.0487 20.6164C56.3265 21.3534 57.6501 22.1153 58.834 23.1486C60.7735 24.8402 62.3265 27.8412 63.0659 29.8961C63.8405 32.0473 64.2507 34.4431 64.2507 36.8223C64.2507 41.803 63.9838 46.9977 60.804 50.9603C60.1762 51.7431 59.1337 52.5391 58.212 53.2397C57.9393 53.4478 57.6748 53.6486 57.4349 53.8391C56.7179 54.4094 55.9843 54.8572 55.2073 55.3311C54.9204 55.505 54.6312 55.6802 54.3421 55.8645C54.0212 56.0669 53.6979 56.2783 53.3699 56.4923C51.4937 57.7161 49.5541 58.9823 47.4135 59.2878C45.9252 59.4995 44.3865 59.6075 42.8395 59.6075ZM40.9657 17.8681C40.6037 17.8681 40.2263 17.9058 39.8937 17.9398C39.6632 17.9633 39.4446 17.9856 39.252 17.9927C37.5945 18.0597 36.1051 18.4875 34.5263 18.9413L33.5471 19.2186C31.1079 19.9028 28.8062 20.5494 26.8373 22.3925C22.9051 26.0731 21.0807 31.0891 21.0924 38.1763C21.0971 40.5306 21.1029 43.7552 22.4841 45.8816C22.7123 46.2356 22.9438 46.5987 23.1788 46.9667C24.3779 48.8558 25.6204 50.8108 27.1885 52.2753C30.8762 55.7208 35.7216 57.4828 42.4363 57.8241C42.937 57.8484 43.3943 57.8616 43.8316 57.8616C46.7952 57.8616 49.0004 57.2772 51.2046 55.9091C51.7537 55.5691 52.3332 55.2434 52.9479 54.8992C54.8616 53.8259 56.8401 52.7163 58.1037 51.0211C58.3882 50.6378 58.7032 50.3513 59.0077 50.0747C59.513 49.6139 60.0374 49.1378 60.3995 48.2445C60.5416 47.8978 60.7627 47.5814 60.9966 47.2488C61.3246 46.7822 61.662 46.3003 61.7796 45.7077C62.3462 42.8747 62.6096 40.3003 62.6096 37.6002C62.6096 35.4853 62.4802 32.743 61.468 30.2848C60.8238 28.7191 59.0124 24.8892 56.1041 23.1353C55.581 22.8214 55.0662 22.4898 54.5502 22.1595C52.794 21.0333 50.979 19.8673 48.877 19.343C46.907 18.8492 45.0554 18.4719 43.2146 18.1886L43.1252 18.1745L43.0465 18.2192C42.9492 18.2765 42.8384 18.3069 42.7255 18.3073C42.5879 18.3073 42.4491 18.2627 42.3095 18.1733C42.2036 18.1074 42.0909 18.0533 41.9732 18.0122L41.9487 18.0039L41.924 17.9992C41.8123 17.9852 41.7393 17.9652 41.6571 17.9322L41.6324 17.9217L41.6054 17.9183C41.4159 17.8847 41.2055 17.8681 40.9657 17.8681Z" fill="#0077BF"/>
<path d="M42.5501 68.471C40.8962 68.471 39.2728 68.3544 37.7223 68.1252C35.1045 67.741 32.3161 66.8841 29.664 65.6496C28.5309 65.1228 27.4565 64.4563 26.4173 63.81C25.3287 63.1353 24.2026 62.4371 23.0012 61.8892C21.6611 61.2802 20.4292 60.4372 19.3359 59.3841C18.8939 58.9575 18.5342 58.4508 18.1862 57.9592C17.8583 57.4963 17.5186 57.0189 17.1048 56.5956C15.3322 54.7891 13.6323 52.4169 12.6684 50.4055C11.2789 47.4985 10.388 44.9016 10.0258 42.6871C9.62373 40.2208 9.88467 37.3747 10.1162 34.8639L10.1315 34.7028C10.5406 30.2453 10.9639 25.6338 13.1855 21.4242C13.3352 21.1418 13.4833 20.8585 13.6298 20.5744C14.7584 18.3997 15.8245 16.346 17.7137 14.7508C19.5487 13.198 21.6611 11.9189 24.3612 10.7246C27.5222 9.32455 30.307 8.42752 33.1247 7.90096C35.4569 7.46361 37.8433 7.42721 39.8981 7.42721L41.4945 7.43189L41.572 7.35189C41.7037 7.21439 41.8801 7.14502 42.0975 7.14502C43.3036 7.18377 44.4026 7.40236 45.5676 7.63393C45.9897 7.71861 46.414 7.80314 46.8442 7.87971C47.265 7.95377 47.6906 8.01846 48.1197 8.08533C49.2964 8.26752 50.5142 8.45564 51.6228 8.82471C52.648 9.16674 53.614 9.60893 54.5509 10.0356C55.1869 10.3272 55.8451 10.6258 56.5234 10.8985C56.8067 11.0102 57.0959 11.1206 57.3851 11.2324C58.5008 11.6591 59.6515 12.0999 60.6297 12.7371C60.9983 12.976 61.3695 13.2111 61.743 13.4424C63.8906 14.7872 66.3275 16.3106 67.2478 18.4549C67.3465 18.6875 67.4265 18.9486 67.5087 19.2249C67.6922 19.8278 67.8803 20.4497 68.3223 20.9071L68.4798 21.0658C68.7572 21.348 69.044 21.6383 69.2486 21.958C69.365 22.1378 69.4461 22.3635 69.5319 22.6033C69.6328 22.8806 69.7375 23.1688 69.908 23.4003C70.0714 23.6202 70.283 23.7953 70.49 23.9635C70.7109 24.1481 70.9226 24.3197 71.0436 24.5277C71.2775 24.9274 71.4233 25.4341 71.4326 25.8853C71.4469 26.6153 71.7736 27.1996 72.0909 27.765C72.279 28.1024 72.4566 28.421 72.5683 28.763C72.8469 29.6164 72.9715 30.4405 73.1044 31.315C73.182 31.8311 73.2642 32.3636 73.3795 32.9042C73.6109 33.9846 73.5558 35.1966 73.5017 36.3674C73.4734 36.9692 73.4453 37.5922 73.457 38.1811C73.4676 38.6549 73.4887 39.1275 73.5112 39.5977C73.5558 40.5452 73.6017 41.5255 73.5406 42.487C73.1515 48.5597 70.7487 54.1366 66.5933 58.6153C64.6103 60.7525 62.4261 62.4403 60.102 63.6336C57.6981 64.8677 55.3519 66.0399 53.0876 66.8124C49.9078 67.8972 46.2637 68.471 42.5501 68.471ZM42.6584 8.8883C42.5197 9.01174 42.3458 9.07393 42.1389 9.07393C36.675 9.07393 32.1387 9.21971 27.654 11.07C23.8078 12.6535 19.0211 14.626 16.4301 18.7674C12.1723 25.576 11.5987 33.4544 11.5987 40.2642C11.5987 42.0899 11.7726 43.6803 12.6261 45.5105C12.8636 46.017 13 46.5685 13.1456 47.1517C13.3514 47.9816 13.5642 48.8397 14.0872 49.5767C14.8008 50.5828 15.5048 51.6269 16.2395 52.7696C16.6356 53.3846 17.1012 53.945 17.5514 54.4871C17.9522 54.9702 18.3661 55.4672 18.7175 55.9916C20.6676 58.8999 23.5911 60.5667 26.4606 61.9339C26.965 62.175 27.4198 62.4805 27.9019 62.8049C28.352 63.1071 28.8176 63.421 29.3255 63.6749C30.7901 64.4036 32.1726 64.9703 33.5539 65.4074C36.3858 66.3033 39.1883 66.7028 42.6395 66.7028C45.2198 66.7028 48.3948 66.7028 50.8198 65.8038C56.3425 63.7549 61.6498 61.5424 65.877 57.0061C69.8339 52.7611 72.2084 46.3253 71.9251 40.6088C71.8676 39.4802 71.8359 38.3328 71.8017 37.2242C71.7525 35.5561 71.7008 33.8317 71.5737 32.1378C71.4737 30.8036 71.0822 29.8385 70.6309 28.7205C70.5145 28.4382 70.4017 28.1545 70.2923 27.8694C70.1689 27.5461 70.0855 27.2171 70.0056 26.9008C69.8128 26.1402 69.6306 25.4231 68.9523 24.846C68.5267 24.485 68.2223 23.895 67.9272 23.3236C67.7026 22.8935 67.4723 22.4455 67.1842 22.0892C66.58 21.3392 66.2744 20.6341 65.9487 19.6677C65.4598 18.2136 64.4653 17.5 63.4131 16.7453C63.1821 16.5811 62.9532 16.4138 62.7265 16.2435C62.5478 16.106 62.3669 15.966 62.1845 15.8261C61.2359 15.0936 60.2533 14.3355 59.174 13.8017C52.8829 10.6914 47.6942 9.10814 42.8453 8.82361L42.7383 8.81768L42.6584 8.8883Z" fill="#0077BF"/>
<path d="M51.3808 50.1915C51.3361 50.1915 51.289 50.1879 51.2408 50.1796C49.4951 49.9212 47.8083 49.4438 46.6151 48.8726C46.1297 48.6373 44.9495 48.2024 44.297 48.2024C43.9914 48.2024 43.6951 48.0132 43.3801 47.8146C43.1262 47.6523 42.8628 47.4857 42.5701 47.4032C41.6733 47.1505 40.7986 46.7401 39.9522 46.344C38.9389 45.8679 37.8903 45.3754 36.7736 45.1366C36.6408 45.1098 36.4914 45.0802 36.3315 45.0496C35.3406 44.8579 33.8429 44.5677 33.3739 43.7685C32.9461 43.0373 32.7273 41.8948 32.5345 40.8849C32.4534 40.4559 32.3747 40.0502 32.2865 39.694L32.0937 38.9288C31.74 37.5276 31.372 36.0793 31.1392 34.6793C30.957 33.586 30.6961 32.4951 30.4422 31.4396C29.9908 29.5565 29.5229 27.6098 29.5229 25.6609C29.5229 25.0343 30.0414 24.9109 30.2012 24.8873L30.274 24.8766L30.3304 24.8285C30.5056 24.6804 30.7336 24.5957 30.9558 24.5957C31.1509 24.5957 31.4261 24.6615 31.634 24.9718L32.0642 24.6851C32.0783 24.7074 32.0948 24.7874 32.0478 24.8662C32.002 24.9449 31.9244 24.9707 31.8939 24.9707C31.9303 24.9707 32.1031 24.9941 32.7908 25.294C33.2375 25.4891 33.6748 25.716 34.0956 25.9359C34.467 26.1298 34.8526 26.3309 35.244 26.5084L36.3431 27.008C37.5434 27.5487 38.7847 28.1084 39.9779 28.7007C40.387 28.9041 40.8676 29.1063 41.3767 29.3215C43.1508 30.0691 45.3572 30.9988 45.9765 32.5705L46.4739 33.8318C46.9475 35.0355 47.4212 36.238 47.9009 37.443C48.2465 38.3082 48.6709 39.1205 49.0812 39.9046C49.4209 40.5557 49.7725 41.2284 50.0711 41.9196C50.3344 42.5318 50.6411 43.1315 50.9373 43.7134C51.3253 44.4763 51.7284 45.2649 52.0319 46.0724C52.1717 46.4487 52.2411 46.8262 52.314 47.2257C52.3798 47.5868 52.4469 47.9605 52.5726 48.3295C52.5914 48.3884 52.6337 48.4754 52.6748 48.5577C52.6819 48.573 52.6901 48.5882 52.6972 48.6035L52.6314 48.6599C52.944 49.0195 52.85 49.3804 52.7665 49.5638C52.6206 49.8846 52.3104 50.1091 52.0129 50.1091C51.9734 50.109 51.9341 50.1047 51.8955 50.0963L51.8142 50.0799L51.7367 50.1138C51.6251 50.1653 51.5036 50.1918 51.3808 50.1915ZM31.3192 26.9466C31.3497 27.0876 31.3826 27.2288 31.4156 27.371C31.465 27.5766 31.5144 27.7884 31.5601 28.0127C31.6319 28.3748 31.6601 28.7591 31.687 29.133C31.7187 29.5704 31.7494 30.0241 31.8551 30.4638C31.9173 30.7201 32.0244 30.9951 32.1278 31.2596C32.2842 31.658 32.4475 32.0696 32.4569 32.428C32.4709 32.9605 32.5626 34.1373 32.8025 34.7709C33.1351 35.6607 33.322 36.6129 33.5008 37.5357C33.6525 38.307 33.8087 39.104 34.0509 39.8796C34.1086 40.0677 34.1733 40.2652 34.2401 40.4685C34.4764 41.1845 34.7433 41.998 34.8503 42.7373L34.869 42.8715L34.9901 42.9326C35.679 43.2759 36.4583 43.4676 37.2108 43.6507C37.802 43.7966 38.3592 43.933 38.8776 44.1374C39.3267 44.3138 39.7711 44.5323 40.2012 44.7416C40.554 44.9143 40.9172 45.0932 41.2862 45.2507C41.6119 45.3893 41.9881 45.4812 42.3853 45.5788C42.9167 45.7104 43.4669 45.8468 43.8337 46.0899C44.4098 46.4745 45.0633 46.6484 45.6969 46.8165C46.1694 46.9423 46.615 47.0609 47.0311 47.2596C48.2653 47.852 49.6455 48.2093 50.5883 48.4059L50.9611 48.4834L50.8951 48.1084C50.8702 47.9569 50.8416 47.806 50.8094 47.6559C50.5001 46.2887 49.8078 44.9638 49.1378 43.6824C48.9815 43.3858 48.8275 43.0881 48.6758 42.7891C48.4431 42.3271 48.1844 41.884 47.9364 41.4574C47.4698 40.6579 47.0301 39.9034 46.7386 39.0276L46.5329 38.4034C46.0698 36.9916 45.5901 35.5304 44.8861 34.2773C44.779 34.0891 44.6992 33.9105 44.6215 33.7388C44.4029 33.2615 44.1959 32.8102 43.6084 32.4176C43.077 32.0637 42.4728 31.7474 41.8897 31.4395L41.5723 31.2713C40.7048 30.8116 39.7937 30.419 38.9122 30.0405C38.3137 29.7843 37.6954 29.5163 37.1019 29.2341C36.4612 28.9298 35.817 28.5924 35.1915 28.2655C34.317 27.8084 33.4106 27.3346 32.4901 26.9349C32.1928 26.8045 31.9011 26.7185 31.6437 26.6434L31.2253 26.5199L31.3192 26.9466Z" fill="#0077BF"/>
<path d="M41.0431 41.8863C40.8209 41.8863 40.6082 41.8815 40.412 41.8781L40.1287 41.8732C39.9982 41.871 39.8795 41.8451 39.7771 41.797L39.7501 41.7851L39.7207 41.7793C38.3043 41.4809 37.0864 40.7143 36.4657 39.7292C35.999 38.9921 35.8732 38.1645 36.0918 37.2735C36.3164 36.3495 37.3262 35.3115 38.1701 34.739C38.5064 34.5098 38.9625 34.3934 39.5209 34.3934C40.1087 34.3934 40.8057 34.5285 41.4334 34.7637C42.449 35.1457 43.5318 36.2895 43.9914 37.1746C44.4734 38.1056 44.4968 39.4928 44.3123 40.3863C44.0396 41.7157 42.422 41.8863 41.0431 41.8863ZM39.83 36.1038C39.3304 36.1038 38.5968 36.3107 37.9468 37.2876C37.6318 37.7601 37.5836 38.2598 37.8034 38.7299C38.1843 39.5445 39.3409 40.1323 40.2403 40.2298L40.285 40.2393C40.4037 40.2429 40.5259 40.2499 40.6493 40.257C40.8761 40.2698 41.1078 40.2829 41.3368 40.2829C41.8142 40.2829 42.1832 40.224 42.4961 40.0982C42.857 39.9524 42.8121 39.3976 42.7287 38.791L42.7192 38.7193C42.6321 38.027 42.3548 37.7271 42.0057 37.3463L41.8553 37.1829C41.2218 36.4778 40.5212 36.1038 39.83 36.1038ZM38.0926 25.2937C37.8528 25.2937 37.6329 25.209 37.4871 25.061C37.352 24.9246 37.2862 24.7388 37.2909 24.5132C37.3015 23.9348 37.3309 23.3471 37.3603 22.777C37.3967 22.074 37.4343 21.3476 37.4343 20.6246C37.4343 20.0851 37.847 19.8429 38.2537 19.8429L38.3443 19.8395C38.4008 19.8282 38.4583 19.8227 38.5159 19.8231C38.724 19.8231 39.0871 19.896 39.1861 20.3896L39.2284 20.5988L39.3471 20.5976C39.4964 20.7257 39.8279 21.0243 39.9054 21.1313L40.324 20.8281C40.3215 20.8351 40.3404 20.9174 40.2898 21.002L40.0889 21.1184C40.0676 21.1207 40.1476 21.1512 40.4156 21.3253L40.4628 21.3534C40.6336 21.4383 40.7996 21.5325 40.9601 21.6356C41.1846 21.7979 41.4103 21.9788 41.6325 22.1598L42.0015 22.4571L42.0862 22.014C42.1215 21.692 42.1484 21.3274 42.0145 21.0548C41.8417 20.7021 41.9357 20.4176 42.0462 20.2413C42.2143 19.9698 42.5257 19.7876 42.8196 19.7876C43.077 19.7876 43.2829 19.9287 43.4145 20.1943C43.6956 20.7679 43.7307 21.3334 43.6967 22.0082C43.7026 22.114 43.7062 22.1645 43.7026 22.1938C43.7109 22.1174 43.8014 22.0057 43.9423 22.0057C44.041 22.0057 44.1128 22.0657 44.134 22.1021L43.6509 22.2903L43.6696 22.336C43.699 22.4018 43.7273 22.4688 43.7496 22.5371C43.7954 22.6982 43.8318 22.8604 43.8578 23.0379C43.9318 23.5174 43.8036 24.264 43.4228 24.7082C43.2359 24.9245 43.0137 25.0349 42.7621 25.0349C42.6577 25.0338 42.5539 25.0176 42.454 24.9868C42.1271 24.8881 41.9696 24.6976 41.7723 24.4554C41.6323 24.2849 41.475 24.091 41.242 23.9253C41.0645 23.7971 40.894 23.6607 40.7271 23.5256C40.3851 23.2528 40.0325 22.9695 39.6093 22.7568C39.5364 22.7192 39.4576 22.6768 39.3789 22.6346L39.0179 22.4384L38.9967 22.8474C38.9662 23.4376 38.939 23.969 38.9309 24.5049C38.9201 25.0493 38.5028 25.2937 38.0926 25.2937ZM59.2579 41.9817C58.85 41.9817 58.4373 41.7381 58.4373 41.1965C58.4373 40.3207 58.4373 39.4131 58.4645 38.502C58.4762 38.381 58.4762 38.2363 58.4645 38.0635L58.4456 37.812L58.08 37.8296C57.9765 37.8343 57.8767 37.839 57.7756 37.839C57.6464 37.839 57.5393 37.8309 57.4382 37.8109C57.2236 37.7709 57.0075 37.7392 56.7904 37.7157L56.4778 37.6804L56.5025 37.9943C56.5165 38.1531 56.5342 38.3106 56.5529 38.4681C56.5929 38.8042 56.6304 39.1228 56.6142 39.4354L56.6095 39.5106C56.5978 39.7317 56.5861 39.9537 56.5895 40.1746C56.5906 40.2863 56.5918 40.3674 56.5953 40.4487L56.6 40.5357L56.6564 40.6026C56.8703 40.8601 56.8209 41.1153 56.7421 41.2843C56.5953 41.6007 56.2403 41.8287 55.8993 41.8287C55.7017 41.8287 55.5184 41.757 55.3539 41.6181C54.9025 41.2351 54.9353 40.3815 54.9542 39.8726C54.9706 39.4424 54.9365 39.0285 54.9035 38.6265C54.8812 38.3749 54.8601 38.1174 54.8507 37.8471L54.8425 37.6073L54.6014 37.5979C54.3193 37.5873 54.0373 37.5709 53.7551 37.5451L53.4729 37.5181V37.8026C53.4729 38.0835 53.4682 38.4528 53.4259 38.8148C53.397 39.053 53.3653 39.2909 53.3307 39.5284C53.2614 40.0209 53.1896 40.531 53.172 41.0437C53.1531 41.5915 52.7287 41.8359 52.316 41.8359C52.0775 41.8359 51.86 41.7526 51.7189 41.6054C51.5873 41.469 51.525 41.2856 51.5321 41.0613C51.5462 40.6545 51.6039 40.2595 51.6637 39.8399C51.7096 39.5237 51.7567 39.1957 51.7837 38.8654C51.8307 38.2695 51.826 37.6651 51.8225 37.0809L51.8201 36.5931C51.8201 36.0535 52.2315 35.8126 52.6395 35.8126H52.6759L52.7557 35.8056C52.8204 35.7896 52.8868 35.7817 52.9534 35.7821C53.0204 35.7821 53.0873 35.7892 53.1556 35.8056C53.8926 35.9784 54.6825 35.996 55.4467 36.0148C55.9132 36.0242 56.3553 36.0348 56.7867 36.0782C57.0323 36.1017 57.297 36.1087 57.5661 36.1159C58.1479 36.1312 58.7498 36.1463 59.2129 36.3509C60.365 36.8623 60.2273 38.802 60.1276 40.2173C60.1017 40.5771 60.077 40.9179 60.077 41.1967C60.0771 41.7381 59.6657 41.9817 59.2579 41.9817ZM23.9921 43.4485C23.5773 43.4485 23.2621 43.0924 23.1764 42.7549C23.1351 42.5917 23.0882 42.1824 23.5514 41.931C23.8229 41.7843 24.1109 41.6713 24.4142 41.5513C24.5082 41.5138 24.5823 41.4829 24.6551 41.4524L25.2417 41.2138L24.8056 40.9459C24.1554 40.546 23.5771 40.1817 23.0929 39.7528C22.9201 39.5976 22.8754 39.4013 22.8684 39.2626C22.8578 39.0228 22.9471 38.7735 23.1117 38.596C23.516 38.1588 23.9968 37.812 24.621 37.5087C24.7175 37.4617 24.8337 37.4181 24.956 37.3746L25.4168 37.2042L25.1289 36.9174C24.7762 36.5684 24.3131 36.2909 23.8628 36.024C23.4595 35.7842 23.0787 35.5573 22.8142 35.2999C22.4898 34.9848 22.5568 34.6534 22.625 34.4842C22.7614 34.1503 23.1034 33.907 23.4386 33.907C23.6348 33.907 23.817 33.9868 23.9781 34.1456C24.3812 34.5382 24.8303 34.8496 25.2653 35.1507C26.0834 35.7185 26.857 36.2557 27.2143 37.256C27.4729 37.9779 26.6229 38.4621 25.5732 38.9782L25.1359 39.1921L25.5579 39.4343C26.4807 39.9645 27.3012 40.5074 27.2237 41.3281C27.139 42.2332 26.2068 42.5951 25.3076 42.9434C24.9773 43.0712 24.6646 43.1924 24.3931 43.3395C24.259 43.412 24.125 43.4485 23.9921 43.4485ZM41.1382 55.8796C40.8939 55.8796 40.6551 55.8623 40.4518 55.8457C40.2671 55.8304 40.065 55.767 39.851 55.6998C39.6018 55.6223 39.3456 55.541 39.0868 55.534C38.8189 55.5257 38.5673 55.4482 38.2675 55.2813C38.1536 55.2179 38.0759 55.1684 38.0265 55.1296L37.9818 55.0954L37.9278 55.0839C37.5587 54.9968 37.2906 54.6606 37.2906 54.2867V54.1432C37.2906 53.6024 37.6996 53.3613 38.1064 53.3613C38.2992 53.3613 38.485 53.4168 38.6284 53.5192L38.6565 53.539L38.6882 53.5521C38.8057 53.5954 38.8987 53.6437 38.9879 53.7084C39.0562 53.7506 39.0973 53.7884 39.1396 53.8246L39.2114 53.8881L39.3054 53.8906C39.3054 53.8906 39.3501 53.8918 39.4782 53.9268C39.999 54.1126 40.4809 54.2009 40.977 54.2009C41.2592 54.2009 41.56 54.1737 41.8964 54.1151C42.0279 54.0917 42.2348 54.0892 42.4007 54.0856C42.7392 54.0798 42.9639 54.0773 42.9967 53.8259C43.0295 53.5649 42.786 53.4978 42.3853 53.3873C41.8646 53.2451 41.3156 53.1606 40.7843 53.0781C39.6123 52.8984 38.5061 52.7256 37.6398 51.9965C37.1873 51.6156 37.0143 51.1749 37.1273 50.6882C37.3329 49.8007 38.4145 48.9698 39.2937 48.751C39.6546 48.6604 40.0179 48.6182 40.4387 48.6182C40.8442 48.6182 41.2521 48.6582 41.6825 48.6982L41.9917 48.7287C42.7287 48.7956 43.2753 48.9298 43.7231 49.3895C44.0453 49.7196 43.97 50.0593 43.8959 50.2332C43.7584 50.5624 43.4245 50.7999 43.1025 50.7999C42.9073 50.7999 42.7275 50.7176 42.5676 50.5531C42.3818 50.3613 42.0973 50.3357 41.8175 50.3357L41.5201 50.339C41.4637 50.339 41.3826 50.3378 41.3296 50.3274C41.0911 50.2756 40.7748 50.2167 40.455 50.2167C40.187 50.2167 39.9471 50.2567 39.7192 50.3357C39.564 50.3767 39.3959 50.4471 39.2079 50.5542L38.76 50.8068L39.2314 51.0162C39.571 51.1679 39.9143 51.3031 40.3717 51.3063C41.5271 51.3146 43.9018 51.7696 44.4237 52.8288C44.7681 53.5292 44.7353 54.1099 44.319 54.6578C43.7912 55.356 43.1178 55.5146 42.2654 55.7157L41.9315 55.7945C41.7025 55.8528 41.4417 55.8796 41.1382 55.8796Z" fill="#0077BF"/>
</svg>
