<svg width="80" height="80" viewBox="0 0 80 80" fill="none" xmlns="http://www.w3.org/2000/svg">
<path d="M68.0116 67.9736C65.5054 68.3749 63.0573 69.0521 60.583 69.6055C59.4762 69.8514 58.3263 69.931 57.2108 70.1413C56.5565 70.266 55.8771 70.4952 55.2001 70.5889C55.4068 70.5236 55.5933 70.4655 55.7227 70.4167C56.5898 70.0828 57.4913 69.8574 58.381 69.5935C59.8421 69.1588 61.3826 68.9425 62.6773 68.0813C63.0337 67.8449 62.9434 67.1442 62.4362 67.1964C60.9776 67.3486 59.4869 67.5469 58.039 67.7977C56.414 68.0803 54.8341 68.5733 53.2116 68.8678C52.9979 68.9071 52.7816 68.9463 52.5654 68.9855C53.5713 68.7003 54.5788 68.4082 55.5624 68.0566C56.054 67.8821 56.9282 67.6553 56.8143 66.9757C56.781 66.7738 56.5505 66.6207 56.3569 66.6266C54.7332 66.673 53.1416 67.1422 51.5393 67.3821C50.7243 67.5032 49.9094 67.6149 49.0957 67.7361C49.293 67.6339 49.458 67.5057 49.546 67.3417C49.6991 67.0555 49.5152 66.5839 49.1351 66.6267C45.7105 67.0175 42.3349 67.6791 38.9676 68.3894C39.3988 68.185 39.8038 67.9403 40.1613 67.6282C40.4821 67.3489 40.2196 66.8144 39.8263 66.8169C38.2501 66.8263 36.6515 67.1564 35.0823 67.3264C33.2959 67.52 31.5226 67.8217 29.7646 68.1958C29.1516 68.3277 28.5365 68.4453 27.9212 68.5616C28.5764 68.3607 29.2297 68.1536 29.881 67.9403C30.4701 67.7469 30.2254 66.9177 29.6279 67.0235C28.2774 67.2647 26.8948 67.3299 25.5384 67.5474C24.094 67.7777 22.6913 68.2185 21.2684 68.5439C20.8763 68.6342 20.4855 68.7222 20.0935 68.8088C21.0699 68.488 22.038 68.146 22.9646 67.703C23.3909 67.4975 23.1843 66.793 22.7246 66.8169C21.7684 66.8657 20.8657 67.1992 19.9391 67.4036C18.9201 67.6283 17.9127 67.8347 16.9079 68.0925C16.9365 67.836 16.7868 67.5627 16.4541 67.5769C15.1974 67.6316 13.8504 68.0403 12.6626 68.4357C11.6173 68.7839 10.3476 68.9214 9.46741 69.6164C9.19179 69.8338 9.34866 70.3433 9.67648 70.4099C10.3524 70.5466 10.9926 70.3102 11.6399 70.1307C12.766 69.8172 13.9549 69.6117 15.1119 69.4288C15.2744 69.4037 15.4363 69.3756 15.5977 69.3446C15.2046 69.4858 14.8126 69.6225 14.4146 69.7483C13.7293 69.9621 13.0391 70.1227 12.4143 70.4919C12.1365 70.656 12.0724 71.1678 12.4143 71.3116C13.3705 71.7177 14.3826 71.2094 15.3149 70.8814C16.8413 70.3457 18.573 70.0928 20.1529 69.7378C21.0284 69.5416 21.9001 69.3314 22.7732 69.126C21.3051 69.5822 19.8476 70.0703 18.4176 70.6346C17.9496 70.8185 17.9698 71.5896 18.5446 71.5669C19.3287 71.5372 20.0685 71.3614 20.8144 71.1227C21.7088 70.8339 22.576 70.6036 23.4965 70.4039C25.3162 70.0097 27.1371 69.6236 28.9734 69.3232C30.9049 69.0072 32.7982 68.5535 34.746 68.3158C35.5776 68.2138 36.4102 68.0985 37.2405 68.001C37.1848 68.013 37.129 68.026 37.0766 68.0355C36.0421 68.2244 35.0349 68.5452 33.9979 68.7339C33.0855 68.9002 32.1437 69.353 31.2635 69.6463C30.426 69.9242 29.5257 70.0572 28.7549 70.4919C28.2584 70.7735 28.6146 71.448 29.1205 71.3589C33.7198 70.5632 38.2596 69.4397 42.8432 68.5628C41.906 68.8135 40.9677 69.0688 40.0507 69.3778C39.5601 69.5439 39.0768 69.7235 38.593 69.8992C37.7343 70.068 36.8791 70.2746 36.1652 70.6821C35.6866 70.9552 36.0132 71.6739 36.5312 71.5491C37.3543 71.3521 38.1524 71.0753 38.9484 70.7855C39.5624 70.6724 40.1777 70.5752 40.724 70.4325C42.4771 69.9741 44.2457 69.575 46.031 69.2697C47.7141 68.9835 49.3771 68.6378 51.0733 68.4013C51.1243 68.3942 51.1768 68.386 51.229 68.3777C48.8154 69.0617 46.4504 69.841 44.0701 70.6346C43.709 70.7533 43.5605 71.3103 43.9562 71.5017C44.6784 71.8544 45.9113 71.2961 46.6287 71.1167C48.3985 70.6736 50.1944 70.3791 51.9893 70.0524C53.6962 69.7425 55.3851 69.3682 57.079 69.0238C56.2285 69.31 55.3615 69.538 54.5193 69.8741C54.0524 70.0607 53.499 70.1558 53.1699 70.5667C52.9323 70.8636 53.0308 71.2164 53.3801 71.3588C54.2733 71.7247 55.1904 71.5799 56.1024 71.3588C57.5043 71.0228 58.9177 70.7982 60.3465 70.6177C61.5985 70.4586 62.8552 70.0524 64.0823 69.7577C65.4671 69.4275 66.8569 69.1153 68.2633 68.8894C68.8668 68.793 68.6102 67.8774 68.0116 67.9736Z" fill="#B3B3B3"/>
<path d="M18.9343 15.2398C18.3701 15.6342 18.2514 16.2196 18.2465 16.8814C18.2311 18.5728 17.92 20.4639 17.585 22.1148C17.2881 23.584 16.9198 25.0404 16.585 26.5026C16.2773 27.8472 15.9245 29.1632 15.9209 30.5459C15.9197 30.6646 16.0193 30.7632 16.1381 30.7632H16.4292C16.7093 30.7632 16.7093 30.3273 16.4292 30.3273H16.3662C16.4243 28.0112 17.2951 25.664 17.7404 23.394C17.9804 22.167 18.2428 20.9756 18.3759 19.7296C18.4495 19.0526 18.5064 18.3731 18.58 17.695C18.6336 17.1926 18.6087 16.3812 18.9137 15.8884C19.0409 15.974 19.2631 15.9193 19.2631 15.7186V15.4275C19.2633 15.2731 19.0743 15.1425 18.9343 15.2398ZM22.1711 12.5209C22.1878 12.2395 21.7517 12.2406 21.7351 12.5209C21.6864 13.312 21.4442 14.0592 21.4442 14.8562C21.4442 15.8195 21.557 16.8718 21.3693 17.8198C20.8942 20.187 20.4012 22.5497 19.7729 24.8801C19.2134 26.9611 18.3772 29.0112 18.0495 31.1446C17.9176 31.9962 17.9614 32.8621 17.8426 33.7186C17.7393 34.4634 18.022 35.3304 17.4376 35.9148C17.2381 36.1131 17.5468 36.422 17.7453 36.2225C18.124 35.8448 18.2025 35.5739 18.2404 35.0357C18.3058 34.0915 18.3804 33.159 18.4018 32.2136C18.4554 29.9009 19.4473 27.6143 20.079 25.4121C20.7823 22.9534 21.287 20.4423 21.7883 17.9361C21.9676 17.037 21.8797 16.0878 21.8797 15.1731C21.88 14.267 22.1164 13.4165 22.1711 12.5209ZM25.834 10.0848C25.2758 10.8878 25.245 11.8522 25.1642 12.7834C25.0454 14.1529 24.6926 15.5284 24.4443 16.8778C23.9681 19.485 23.3148 22.0531 22.697 24.6257C22.0865 27.1617 21.7053 29.7737 21.4951 32.3726C21.3836 33.7564 21.3145 35.1426 21.1934 36.5262C21.0889 37.7247 20.894 38.9351 20.8633 40.1384C20.8536 40.4211 21.2909 40.4189 21.2981 40.1384C21.3622 37.7011 21.7279 35.2268 21.9003 32.7882C22.0937 30.078 22.5004 27.3872 23.1167 24.7409C23.6881 22.2953 24.2806 19.8614 24.7867 17.3992C25.0242 16.2445 25.225 15.0793 25.4387 13.92C25.655 12.7476 25.5051 11.3187 26.2108 10.3043C26.3722 10.0728 25.9933 9.85543 25.834 10.0848ZM28.7122 11.6479C28.5934 13.0175 28.1943 14.33 28.142 15.7186C28.085 17.2104 28.1003 18.6857 27.9425 20.174C27.6075 23.3443 26.7404 26.4386 25.9183 29.5101C25.1808 32.2645 24.98 35.0642 24.7898 37.8995C24.7481 38.5498 24.6987 39.1996 24.6414 39.8487C24.5892 40.4473 24.405 41.0365 24.367 41.6328C24.3208 42.3503 24.3504 43.0757 24.3504 43.7945C24.3504 44.4478 24.1212 45.0226 24.0608 45.6618C24.0334 45.942 24.4693 45.9395 24.4967 45.6618C24.5443 45.1618 24.7403 44.7092 24.7876 44.2079C24.859 43.45 24.7876 42.6459 24.7876 41.8832C24.7876 41.4237 24.9634 40.9842 25.0206 40.5304C25.1156 39.7917 25.1464 39.0373 25.2 38.2926C25.4292 35.0701 25.7106 31.9711 26.5492 28.839C27.2797 26.1118 27.9651 23.3787 28.3322 20.5754C28.5258 19.0884 28.559 17.6012 28.5698 16.1057C28.5815 14.5793 29.0189 13.1504 29.1481 11.6479C29.1718 11.3689 28.7359 11.37 28.7122 11.6479ZM32.7815 11.6479C32.6984 13.2443 31.8717 14.6957 31.5926 16.2648C31.3218 17.7887 31.2684 19.3448 31.0867 20.8795C30.8979 22.4723 30.6686 24.0604 30.2922 25.62C29.8787 27.3398 29.2683 28.9731 28.9379 30.7192C28.2895 34.1567 27.8179 37.6404 27.2429 41.0936C26.9889 42.6139 26.6884 44.095 26.6715 45.6356C26.655 47.017 26.3865 48.3534 26.3865 49.7336C26.3865 50.0139 26.8212 50.0139 26.8212 49.7336C26.8212 48.477 27.0529 47.2521 27.0992 45.9979C27.1704 44.089 27.4889 42.2553 27.8025 40.3712C28.3773 36.9268 28.8311 33.4453 29.5164 30.0209C29.8347 28.4364 30.4228 26.9397 30.8004 25.3718C31.1556 23.8942 31.3209 22.3822 31.5228 20.8797C31.739 19.2572 31.7925 17.6203 32.0798 16.0061C32.3459 14.5095 33.137 13.1828 33.2178 11.6481C33.2329 11.3664 32.797 11.3689 32.7815 11.6479ZM34.8817 15.5653C33.6178 16.9396 33.4183 18.827 33.22 20.61C32.9314 23.1839 31.9525 25.5928 31.9098 28.219C31.905 28.5006 32.3409 28.5006 32.3458 28.219C32.3648 27.0929 32.5192 25.9895 32.7414 24.8871C32.9622 23.785 33.3911 22.6968 33.5408 21.5875C33.8045 19.6418 33.7795 17.4064 35.1908 15.8718C35.3806 15.6662 35.0717 15.3575 34.8817 15.5653ZM36.5612 20.0789C36.4779 20.9768 35.9708 21.7109 35.87 22.6159C35.7381 23.8156 35.8117 24.9642 35.4067 26.1259C35.3142 26.392 35.7347 26.5059 35.8272 26.2423C36.1528 25.31 36.2204 24.3904 36.2597 23.4095C36.3083 22.2217 36.8904 21.2298 36.9984 20.0789C37.0233 19.7986 36.5873 19.8011 36.5612 20.0789ZM31.974 31.2632C30.987 32.3773 31.1889 33.5437 30.9951 34.9192C30.7245 36.822 30.4593 38.7248 29.9831 40.5909C29.7992 41.3107 29.7647 42.0554 29.5804 42.7834C29.3892 43.5484 29.192 44.297 29.0898 45.0806C28.889 46.6081 29.002 48.1953 29.002 49.7332C29.002 50.0136 29.439 50.0136 29.439 49.7332C29.439 48.4409 29.4153 47.1475 29.4642 45.8564C29.5248 44.2886 30.1447 42.8489 30.3004 41.3023C30.4726 39.5882 31.0097 37.8648 31.2567 36.1497C31.4728 34.6625 31.2353 32.7525 32.2829 31.5718C32.4681 31.3618 32.1604 31.0518 31.974 31.2632ZM33.3637 37.2306C33.2923 38.2975 32.9218 39.4234 32.7104 40.4782C32.4464 41.7995 32.1819 43.1207 31.917 44.4418C31.4548 46.7567 30.7884 49.104 30.7483 51.4771C30.7423 51.7587 31.1781 51.7587 31.1829 51.4771C31.2258 49.0231 31.9373 46.5597 32.4172 44.1603C32.682 42.8393 32.9456 41.5187 33.2106 40.1965C33.4043 39.2262 33.7343 38.2212 33.7998 37.2306C33.8186 36.9504 33.3814 36.9529 33.3637 37.2306ZM35.9803 39.5576C35.8936 40.6682 35.2379 41.7431 34.8672 42.7873C34.4551 43.9442 34.2318 45.1653 34.0192 46.3698C33.6248 48.6195 32.5404 50.5937 32.4917 52.9312C32.4859 53.2128 32.9217 53.2103 32.9276 52.9312C32.9764 50.5151 34.1 48.4329 34.5086 46.0989C34.7187 44.8968 34.9979 43.7173 35.4065 42.5665C35.7642 41.5639 36.3318 40.6362 36.4161 39.5576C36.4378 39.2773 36.0018 39.2786 35.9803 39.5576ZM37.4401 43.279C36.579 47.8282 35.4328 52.3432 35.3984 57.0006C35.3961 57.282 35.8318 57.2807 35.8343 57.0006C35.8701 52.3823 37.0079 47.9065 37.862 43.3954C37.9142 43.12 37.4937 43.0023 37.4401 43.279ZM40.3409 44.5001C40.2911 45.5359 39.8111 46.4326 39.6518 47.4398C39.4642 48.6267 39.4118 49.8321 39.2481 51.0211C38.9203 53.3993 38.3406 55.7534 38.3061 58.1634C38.3026 58.445 38.7373 58.445 38.7422 58.1634C38.7778 55.6656 39.3823 53.2151 39.722 50.7503C39.8847 49.5756 39.9392 48.3903 40.1258 47.2203C40.2718 46.2903 40.7304 45.4646 40.7768 44.5001C40.7909 44.2186 40.355 44.2198 40.3409 44.5001ZM42.2295 46.8259C42.232 46.5443 41.797 46.5443 41.7948 46.8259C41.7806 49.0103 41.5633 51.1829 41.3054 53.3506C41.0465 55.5076 41.322 57.6968 40.9301 59.8503C40.8803 60.1246 41.2995 60.2436 41.3504 59.9654C41.7022 58.0364 41.6486 56.0457 41.6498 54.0942C41.6498 52.9668 41.9254 51.7792 42.0322 50.6543C42.1511 49.3807 42.2223 48.1039 42.2295 46.8259ZM45.2831 46.245C45.2451 50.7646 43.5953 55.0906 43.5395 59.6173C43.5348 59.899 43.9706 59.8978 43.9753 59.6173C44.0323 55.0882 45.6811 50.767 45.719 46.245C45.7215 45.9636 45.2854 45.9636 45.2831 46.245ZM48.4818 45.3718C48.3631 47.9815 47.66 50.6007 47.6089 53.2211C47.5898 54.2043 47.4568 55.1926 47.3761 56.1715C47.2467 57.725 47.1195 59.2787 47.0258 60.8348C47.0043 61.1853 46.699 62.777 47.1362 63.0039C47.3845 63.1332 47.6054 62.7568 47.3559 62.6273C47.4853 62.6951 47.4081 62.5846 47.4058 62.4146C47.4009 62.2164 47.4068 62.0168 47.4129 61.8173C47.4318 61.2317 47.4711 60.645 47.5103 60.0606C47.61 58.5626 47.7383 57.0673 47.8631 55.5695C47.9379 54.6703 47.9808 53.7629 48.0995 52.8696C48.2645 51.632 48.3322 50.387 48.4439 49.1446C48.5579 47.8832 48.8598 46.635 48.9167 45.372C48.9297 45.0904 48.4939 45.0917 48.4818 45.3718ZM51.6795 42.1732C51.6664 45.4765 51.3943 48.7704 51.0973 52.0582C50.7898 55.4493 50.2481 58.8215 50.2256 62.234C50.2233 62.5156 50.6603 62.5143 50.6603 62.234C50.6839 58.8203 51.2387 55.4531 51.5334 52.0582C51.8184 48.7692 52.1034 45.479 52.1142 42.1732C52.1165 41.8928 51.6795 41.8928 51.6795 42.1732ZM53.8603 41.3026C53.8579 41.0209 53.422 41.0209 53.4231 41.3026C53.4375 44.9942 53.9315 48.6861 53.492 52.3657C53.2687 54.2331 53.0073 56.0931 52.8909 57.9723C52.772 59.8453 52.6095 61.7518 52.5629 63.6309C52.5584 63.6489 52.5512 63.6654 52.5512 63.6881V63.979C52.5512 64.2592 52.9836 64.2592 52.9872 63.979C53.0192 62.1129 53.2354 60.2468 53.3053 58.3796C53.3742 56.5004 53.6464 54.6321 53.8779 52.7673C54.3568 48.9437 53.8745 45.1415 53.8603 41.3026ZM56.7668 42.4642C56.7647 42.1837 56.3286 42.1837 56.3311 42.4642C56.337 44.2718 56.414 46.08 56.3989 47.8864C56.3833 49.6895 56.0983 51.4511 55.9414 53.24C55.6292 56.8187 55.1847 60.3811 55.1683 63.9789C55.167 64.259 55.6028 64.259 55.604 63.9789C55.622 60.3832 56.0543 56.8164 56.3773 53.24C56.5401 51.4487 56.8014 49.692 56.8347 47.8864C56.869 46.08 56.7728 44.272 56.7668 42.4642ZM59.9643 42.1732C59.9631 41.8928 59.5286 41.8928 59.5286 42.1732C59.5426 45.6106 59.7779 48.9972 59.3894 52.4262C59.172 54.3447 58.9178 56.2571 58.5472 58.1515C58.2858 59.489 57.939 60.7682 57.8239 62.1151C57.7981 62.1493 57.7843 62.1911 57.7847 62.234V62.8162C57.7847 63.0964 58.2147 63.0964 58.2204 62.8162C58.2515 61.1129 58.7243 59.5139 59.0486 57.8546C59.3715 56.1954 59.5806 54.5157 59.7778 52.8384C60.1984 49.2679 59.9798 45.7568 59.9643 42.1732ZM62.1451 44.5001C62.1439 45.885 62.1356 47.269 62.0622 48.6528C61.9753 50.2454 61.6511 51.7956 61.48 53.3754C61.1629 56.3214 60.6912 59.2787 60.6912 62.234C60.6912 62.5143 61.1272 62.5143 61.1272 62.234C61.1272 59.2871 61.6272 56.314 61.9159 53.3754C62.0597 51.9215 62.3625 50.4987 62.4729 49.0389C62.5868 47.529 62.5809 46.0123 62.5809 44.5001C62.5812 44.2186 62.1451 44.2186 62.1451 44.5001ZM65.0517 46.245C65.0492 47.0812 64.7608 47.8378 64.7608 48.6492V52.1828C64.7608 54.2995 64.2192 56.3439 64.18 58.4545C64.174 58.7362 64.6111 58.735 64.617 58.4545C64.6551 56.3439 65.1981 54.2995 65.1981 52.1828V48.6492C65.1981 47.8557 65.4867 47.0646 65.4878 46.245C65.4889 45.9636 65.0531 45.9636 65.0517 46.245ZM67.8147 49.1503C67.8147 48.87 67.3775 48.87 67.3775 49.1503C67.3775 51.9795 67.5306 54.8281 66.5129 57.5256C66.4154 57.7881 66.8359 57.9009 66.9343 57.6407C67.9654 54.9064 67.8147 52.0203 67.8147 49.1503Z" fill="#1F8AFF"/>
<path d="M51.9921 65.3412C50.973 65.3412 49.9882 65.2296 49.0663 65.0085C45.0255 64.0454 40.9419 62.3598 37.2563 60.1374C36.0886 59.4329 35.0599 58.4995 34.0657 57.5967C33.4694 57.0562 32.8518 56.4968 32.2057 55.9849C30.5035 54.6367 28.9654 53.3278 27.5055 51.9796C23.98 48.7262 20.8727 44.5426 18.5161 39.8795C18.2619 39.3734 17.8913 38.9826 17.5338 38.6035C17.1916 38.2426 16.8697 37.9017 16.6608 37.4823C16.2332 36.6295 15.7604 35.8063 15.3032 35.0106L14.9302 34.3596C13.9504 32.6373 13.3777 30.5148 13.0713 29.0382C12.6627 27.0773 12.2719 24.8132 12.8005 22.7395C13.3457 20.6049 14.2247 19.0882 15.5027 17.0201C17.2454 14.2015 20.0602 11.7856 24.3649 9.41697L24.4516 9.36947L24.4858 9.27447C24.5286 9.14744 24.708 8.73291 25.1679 8.73291C25.251 8.73291 25.3388 8.74713 25.4291 8.77447C25.8568 8.90619 26.2986 8.91697 26.7274 8.9265C27.1943 8.93604 27.6338 8.94666 28.0246 9.10713C28.2385 9.19385 28.4544 9.27697 28.6719 9.36244C29.1911 9.56322 29.7291 9.77338 30.2219 10.0217C32.0358 10.9351 33.3329 11.8996 34.188 12.9662C35.2452 14.2871 36.1858 15.7409 37.0958 17.1473L37.5769 17.8896C37.6493 18.0003 37.7289 18.1154 37.8121 18.2317C38.1125 18.6617 38.4546 19.1474 38.4747 19.6167C38.4986 20.1809 38.8822 22.1337 39.2397 22.686C39.4 22.9367 39.4204 23.1898 39.2955 23.4178C39.1458 23.6945 38.8085 23.8881 38.476 23.8881C38.2786 23.8881 38.0033 23.8215 37.7963 23.5032C37.4271 22.9331 37.3211 22.2404 37.2085 21.5101C37.0944 20.7688 36.9769 20.0015 36.5588 19.3588C35.6059 17.8928 34.6358 16.438 33.6486 14.9948C32.5891 13.4412 31.0591 12.1751 29.3429 11.4303C28.4557 11.0442 27.605 10.8993 26.7808 10.7592C26.4507 10.7034 26.1193 10.6463 25.7854 10.5751L25.6618 10.5478L25.5643 10.6274C25.5208 10.664 25.4739 10.6962 25.4243 10.7237C21.9369 12.6218 18.1633 15.0129 16.6025 18.366C16.3496 18.9101 16.0549 19.4338 15.7711 19.9387C15.0168 21.2785 14.24 22.6646 14.2352 24.4618C14.2293 26.6829 14.5774 28.7854 15.2688 30.7096C15.7794 32.1338 16.428 33.3918 17.1158 34.7234C17.3261 35.132 17.5386 35.5429 17.7477 35.9621C18.0624 36.5904 18.4854 37.0645 18.8938 37.5229C19.0827 37.7356 19.2738 37.9504 19.4591 38.1856C19.7239 38.517 19.9141 38.9054 20.116 39.3165C20.2869 39.6645 20.465 40.0245 20.6933 40.3546C21.205 41.0945 21.6708 41.8843 22.1199 42.6495C22.7922 43.7968 23.4882 44.9824 24.3708 46.0406L24.7424 46.4871C26.0229 48.0289 27.2319 49.4829 28.6932 50.824C30.2514 52.2517 31.5568 53.3765 32.803 54.3635C33.4041 54.8385 34.0004 55.4017 34.5763 55.9457C35.4955 56.8151 36.4472 57.7143 37.503 58.351C40.8539 60.3717 44.3208 61.9488 47.806 63.0393C49.0532 63.4301 50.3954 63.6274 51.7958 63.6274C54.3971 63.6274 57.1397 62.9549 59.7255 61.684C61.3304 60.8953 62.7044 59.8724 64.3152 58.2679C64.6513 57.932 65.035 57.6085 65.4057 57.2951C66.1493 56.6679 66.9164 56.0182 67.451 55.1724C67.5413 55.0287 67.66 54.9231 67.8038 54.8567L67.9713 54.7806L67.9546 54.5951C67.8252 53.1568 67.3572 49.7004 65.8035 48.674C65.4389 48.434 65.1193 48.0074 64.8379 47.631L64.7179 47.4718C64.238 46.841 63.5941 46.386 62.9704 45.9465C62.7521 45.7909 62.5357 45.6378 62.3279 45.4798C59.5496 43.3476 56.4447 42.0423 53.5844 41.8035C53.031 41.7573 52.7602 41.2857 52.778 40.8415C52.7921 40.5043 52.9764 40.1407 53.4561 40.1407C53.4822 40.1407 53.5119 40.142 53.5407 40.1443C54.0286 40.1859 54.4919 40.3034 54.9849 40.4293C55.2427 40.4946 55.4993 40.5601 55.7605 40.6146C56.0361 40.6729 56.3652 40.7181 56.7132 40.7631C57.5374 40.8748 58.4736 41.0007 58.9819 41.3404C59.595 41.749 60.2054 42.1362 60.8135 42.5198C62.1286 43.3512 63.3697 44.1365 64.5897 45.107C66.5104 46.6356 67.7244 47.9923 68.3027 49.2549C69.038 50.8607 69.5191 52.9584 69.6544 55.1629C69.6924 55.7773 69.1936 55.9007 69.0404 55.9245L68.924 55.9421L68.8599 56.042C68.0558 57.2953 66.7739 58.6207 65.6694 59.3404C65.1205 59.6967 64.6324 60.1767 64.1608 60.6388C63.8211 60.9715 63.4696 61.3171 63.1108 61.5998C62.3482 62.2007 61.5191 62.6343 60.5927 63.0987C58.5535 64.1213 55.4046 65.3412 51.9921 65.3412Z" fill="#0077BF"/>
<path d="M45.643 47.4598C45.3674 47.4598 45.0954 47.4266 44.8343 47.3601C42.7354 46.8232 41.2269 46.0095 39.9477 44.7207C39.5213 44.292 39.0818 43.8738 38.6412 43.4534C37.5757 42.4379 36.4746 41.3877 35.5909 40.2035C34.2213 38.3659 32.9005 36.5665 31.8054 34.7396C31.0796 33.5293 30.5534 31.3199 30.9598 30.0821C31.4848 28.4823 32.6274 27.1079 33.7319 25.7812L34.0968 25.3405C35.0849 24.1445 36.3535 23.2524 37.6766 22.3712C37.8191 22.2762 37.9605 22.2285 38.0996 22.2285C38.4144 22.2285 38.7138 22.4874 38.8254 22.858C38.8694 23.0007 38.9738 23.4935 38.4868 23.8179L38.3644 23.8998C37.1174 24.7301 35.8298 25.5888 35.0043 26.886C34.7868 27.227 34.4734 27.5855 34.1409 27.9634C33.2845 28.9409 32.3115 30.0491 32.6205 31.3676C32.6812 31.6277 32.7155 31.8915 32.7523 32.1729C32.8296 32.7549 32.909 33.3584 33.238 33.9082C33.4282 34.223 33.6538 34.5104 33.8712 34.7871C34.0813 35.0532 34.2785 35.3038 34.4473 35.5793C35.2526 36.893 35.9557 37.943 36.6577 38.8837C37.3738 39.8446 38.2137 40.6571 39.0249 41.4423C39.4193 41.8224 39.8266 42.2166 40.2163 42.623L40.3446 42.7584C41.3388 43.7965 42.4637 44.9749 43.9685 45.4071C44.3547 45.5184 44.7546 45.5752 45.1565 45.5759C47.9287 45.5759 50.2485 42.9055 51.9602 40.5788C52.181 40.2782 52.4674 40.2152 52.668 40.2152C53.0184 40.2152 53.3759 40.4162 53.5149 40.6916C53.623 40.9054 53.5909 41.1395 53.4209 41.3688C50.4466 45.4098 47.8312 47.4598 45.643 47.4598ZM20.2871 67.9744C20.1901 67.9745 20.0931 67.9721 19.9962 67.9673C18.344 67.889 14.4729 67.7035 13.3898 65.6073C13.2068 65.257 13.2959 64.974 13.4038 64.7982C13.5701 64.5238 13.8862 64.3388 14.1902 64.3388C14.3755 64.3388 14.6321 64.4087 14.8066 64.7473C15.6155 66.3118 19.7396 66.3295 19.9143 66.3295C20.184 66.3295 20.4238 66.3198 20.609 66.3009C20.9666 66.2629 21.3905 66.1821 21.8302 66.0621L22.4265 65.9005L21.8968 65.5848C20.0212 64.4693 18.9735 63.1676 18.7823 61.7113C18.534 59.8202 19.0341 56.763 21.4298 56.0835C21.9263 55.9434 22.4216 55.871 22.9004 55.871C24.7901 55.871 26.4198 56.9793 27.3748 58.9105C28.609 61.4121 28.439 63.133 26.769 65.0466L26.6799 65.1416L26.3332 65.5288L26.8521 65.5763C27.1076 65.6001 27.3676 65.6121 27.6205 65.6121C28.1254 65.6121 28.6291 65.5646 29.1196 65.4721C29.4534 65.4102 29.786 65.3498 30.1162 65.2904C31.4929 65.0432 32.7934 64.8093 34.138 64.3746C35.7059 63.8674 38.3976 62.7271 38.8132 60.7991C38.9262 60.2777 39.3346 60.2221 39.5057 60.2221C39.7921 60.2221 40.0782 60.3562 40.2529 60.5724C40.3609 60.7065 40.4751 60.9371 40.4037 61.2698C39.7966 64.0859 36.383 65.4305 33.8696 66.1955C31.4988 66.9188 29.4879 67.2704 27.7251 67.2704C26.5943 67.2704 25.5538 67.122 24.6309 66.8285L24.5251 66.7952L24.4277 66.8476C23.0702 67.5743 21.5999 67.9744 20.2871 67.9744ZM22.6973 57.5932C21.6402 57.5932 20.4834 58.256 20.4049 60.1171C20.3063 62.4501 21.7316 63.582 23.138 64.3801C23.4765 64.5715 23.8435 64.7496 24.2629 64.923L24.3937 64.9752L24.5088 64.8982C24.8246 64.6843 25.0813 64.468 25.2713 64.2509C26.7491 62.5568 26.8654 61.0649 25.661 59.2632C24.9932 58.2641 23.8021 57.5932 22.6973 57.5932Z" fill="#0077BF"/>
<path d="M32.4134 28.0298C32 28.0298 31.5842 27.7851 31.5842 27.2363V27.1032L31.475 27.0249C31.445 27.0026 31.4168 26.9779 31.3906 26.9512C31.2884 26.8496 31.2147 26.7231 31.1767 26.5841C31.0948 26.2824 31.0495 25.9796 31.0021 25.6563C30.9403 25.2501 30.8786 24.8296 30.7337 24.408C30.5675 23.9305 30.2895 23.4887 30.0187 23.0623C29.8345 22.7726 29.6636 22.5005 29.5259 22.2202C29.4059 21.9766 29.3001 21.6963 29.1884 21.3995C29.0223 20.9624 28.8523 20.5085 28.6195 20.1452C26.827 17.3384 24.0725 15.299 20.432 14.0862C19.9282 13.9187 19.8142 13.4626 19.8678 13.1229C19.9248 12.7784 20.1634 12.4316 20.5698 12.4316C20.6636 12.433 20.7566 12.4491 20.8454 12.4791C24.4289 13.6752 27.1301 15.4796 29.0995 17.9952C29.5734 18.5987 29.9084 19.3387 30.2303 20.0549C30.6223 20.9196 31.0261 21.8152 31.6865 22.5041C32.3814 23.231 32.7153 24.7871 32.7889 25.9026L32.7936 25.9916L32.8542 26.0593C33.1334 26.3718 33.2414 26.702 33.2414 27.2365C33.2414 27.7851 32.8256 28.0298 32.4134 28.0298ZM62.7201 60.2999C62.3078 60.2999 61.8911 60.0552 61.8911 59.5066C61.8911 56.372 60.3004 52.2774 58.1887 49.9851C57.1065 48.8091 55.7595 47.3455 54.1643 46.3979C53.2486 45.8538 52.2686 45.6102 51.3195 45.3774C50.9134 45.2766 50.4917 45.1721 50.0795 45.0462C49.5817 44.893 49.4604 44.4677 49.5129 44.1196C49.5639 43.7727 49.8146 43.401 50.2421 43.401C50.3251 43.401 50.4143 43.4152 50.5047 43.4426C50.9584 43.5826 51.4111 43.7015 51.8481 43.8157C53.1654 44.1624 54.409 44.4879 55.5445 45.3312C57.3654 46.6829 58.7565 47.9824 59.797 49.3045C61.9848 52.084 63.4553 55.9716 63.5409 59.2085L63.5468 59.2737L63.5481 59.5066C63.5481 60.0551 63.1323 60.2999 62.7201 60.2999Z" fill="#0077BF"/>
</svg>
